<svg xmlns="http://www.w3.org/2000/svg" xmlns:xlink="http://www.w3.org/1999/xlink" width="500" zoomAndPan="magnify" viewBox="0 0 375 374.999991" height="500" preserveAspectRatio="xMidYMid meet" version="1.0"><rect x="-37.5" width="450" fill="#ffffff" y="-37.499999" height="449.999989" fill-opacity="1"/><rect x="-37.5" width="450" fill="#ffffff" y="-37.499999" height="449.999989" fill-opacity="1"/><path fill="#353434" d="M 375.074219 187.5625 C 375.074219 291.121094 291.121094 375.074219 187.5625 375.074219 C 84.007812 375.074219 0.0507812 291.121094 0.0507812 187.5625 C 0.0585938 84.007812 84.007812 0.0507812 187.5625 0.0507812 C 291.121094 0.0507812 375.074219 84.007812 375.074219 187.5625 " fill-opacity="1" fill-rule="nonzero"/><path fill="#ffffff" d="M 187.613281 12.433594 L 187.511719 12.433594 C 90.804688 12.457031 12.4375 90.855469 12.4375 187.558594 C 12.433594 284.269531 90.804688 362.660156 187.511719 362.6875 L 187.613281 362.6875 C 284.308594 362.660156 362.6875 284.269531 362.6875 187.558594 C 362.6875 90.851562 284.308594 12.460938 187.613281 12.433594 " fill-opacity="1" fill-rule="nonzero"/><path fill="#c61c2d" d="M 187.589844 103.179688 L 187.539062 103.179688 C 140.945312 103.191406 103.179688 140.96875 103.179688 187.5625 C 103.179688 234.15625 140.945312 271.933594 187.539062 271.949219 L 187.589844 271.949219 C 234.183594 271.933594 271.949219 234.15625 271.949219 187.5625 C 271.949219 140.96875 234.183594 103.191406 187.589844 103.179688 " fill-opacity="1" fill-rule="nonzero"/><path fill="#282b2c" d="M 187.488281 362.6875 L 187.386719 362.6875 L 187.488281 362.6875 M 187.6875 362.6875 L 187.714844 362.6875 L 187.6875 362.6875 M 187.347656 362.6875 L 187.261719 362.6875 L 187.347656 362.6875 M 187.828125 362.6875 L 187.851562 362.6875 L 187.828125 362.6875 M 187.222656 362.6875 L 187.097656 362.6875 L 187.222656 362.6875 M 187.964844 362.6875 L 187.992188 362.6875 L 187.964844 362.6875 M 187.070312 362.6875 L 186.945312 362.6875 L 187.070312 362.6875 M 188.117188 362.6875 L 188.128906 362.6875 L 188.117188 362.6875 M 186.945312 362.6875 C 173.03125 362.652344 159.496094 360.972656 146.53125 357.859375 C 159.496094 360.972656 173.03125 362.652344 186.945312 362.6875 M 188.257812 362.6875 L 188.28125 362.6875 L 188.257812 362.6875 M 188.394531 362.6875 L 188.421875 362.6875 L 188.394531 362.6875 M 188.546875 362.6875 L 188.558594 362.6875 L 188.546875 362.6875 M 188.671875 362.6875 L 188.699219 362.6875 L 188.671875 362.6875 M 188.824219 362.6875 L 188.835938 362.6875 L 188.824219 362.6875 M 188.964844 362.6875 L 188.988281 362.6875 L 188.964844 362.6875 M 189.101562 362.6875 L 189.128906 362.6875 L 189.101562 362.6875 M 189.253906 362.6875 L 189.265625 362.6875 L 189.253906 362.6875 M 189.390625 362.6875 L 189.40625 362.6875 L 189.390625 362.6875 M 189.53125 362.675781 L 189.542969 362.675781 L 189.53125 362.675781 M 189.667969 362.675781 L 189.695312 362.675781 L 189.667969 362.675781 M 189.960938 362.675781 L 189.972656 362.675781 L 189.960938 362.675781 M 190.097656 362.675781 L 190.109375 362.675781 L 190.097656 362.675781 M 190.664062 362.664062 L 190.679688 362.664062 L 190.664062 362.664062 M 146.507812 357.859375 C 146.46875 357.84375 146.429688 357.832031 146.390625 357.832031 C 146.429688 357.832031 146.46875 357.84375 146.507812 357.859375 M 146.367188 357.820312 C 146.34375 357.808594 146.304688 357.808594 146.277344 357.796875 C 146.304688 357.808594 146.34375 357.808594 146.367188 357.820312 M 146.242188 357.78125 C 146.214844 357.78125 146.191406 357.769531 146.164062 357.769531 C 146.191406 357.78125 146.214844 357.78125 146.242188 357.78125 M 146.078125 357.746094 L 146.039062 357.746094 L 146.078125 357.746094 " fill-opacity="1" fill-rule="nonzero"/><path fill="#b0c0c8" d="M 187.5625 362.6875 L 186.945312 362.6875 C 173.03125 362.652344 159.496094 360.972656 146.53125 357.859375 L 146.507812 357.859375 C 146.46875 357.84375 146.429688 357.832031 146.390625 357.832031 C 146.378906 357.820312 146.378906 357.820312 146.367188 357.820312 C 146.34375 357.808594 146.304688 357.808594 146.277344 357.796875 C 146.265625 357.796875 146.253906 357.796875 146.242188 357.78125 C 146.214844 357.78125 146.191406 357.78125 146.164062 357.769531 C 146.128906 357.769531 146.101562 357.757812 146.078125 357.746094 L 146.039062 357.746094 C 101.855469 346.996094 64.242188 319.5 40.28125 282.355469 C 71.015625 309.019531 111.125 325.164062 155.007812 325.164062 C 251.726562 325.164062 330.144531 246.757812 330.144531 150.039062 C 330.144531 115.097656 319.917969 82.566406 302.296875 55.246094 C 339.292969 87.347656 362.6875 134.726562 362.6875 187.5625 C 362.6875 283.25 285.960938 361.011719 190.679688 362.664062 L 190.527344 362.664062 C 190.476562 362.664062 190.4375 362.675781 190.386719 362.675781 L 189.53125 362.675781 C 189.492188 362.675781 189.441406 362.675781 189.40625 362.6875 L 187.5625 362.6875 " fill-opacity="1" fill-rule="nonzero"/><path fill="#ffffff" d="M 19.828125 212.082031 C 19.683594 212.082031 19.535156 212.007812 19.386719 211.871094 C 14.5 206.976562 13.6875 120.851562 66.308594 68.238281 C 106.144531 28.386719 165.210938 19.179688 193.65625 19.179688 C 202.789062 19.179688 208.753906 20.125 209.941406 21.3125 C 214.820312 26.199219 136.617188 33.316406 84.007812 85.9375 C 32.964844 136.96875 24.738281 212.082031 19.828125 212.082031 " fill-opacity="1" fill-rule="nonzero"/></svg>