<svg xmlns="http://www.w3.org/2000/svg" xmlns:xlink="http://www.w3.org/1999/xlink" width="500" zoomAndPan="magnify" viewBox="0 0 375 374.999991" height="500" preserveAspectRatio="xMidYMid meet" version="1.0"><defs><clipPath id="f2a2ab80a8"><path d="M 53.101562 55 L 363 55 L 363 363 L 53.101562 363 Z M 53.101562 55 " clip-rule="nonzero"/></clipPath><clipPath id="2083bf57b8"><path d="M 186.578125 362.6875 L 186.542969 362.6875 L 186.578125 362.6875 M 186.503906 362.6875 C 133.1875 362.375 85.519531 338.230469 53.609375 300.378906 C 56.054688 303.265625 58.578125 306.078125 61.1875 308.804688 C 71.039062 319.070312 82.125 328.128906 94.210938 335.746094 L 280.914062 335.746094 C 293 328.128906 304.085938 319.070312 313.925781 308.804688 C 320.042969 302.433594 325.695312 295.597656 330.789062 288.371094 C 299.355469 332.945312 247.617188 362.210938 189.027344 362.6875 C 222.792969 362.410156 254.277344 352.574219 280.914062 335.746094 L 94.210938 335.746094 C 120.949219 352.636719 152.585938 362.488281 186.503906 362.6875 M 337.878906 277.484375 C 342.191406 270.28125 346 262.753906 349.269531 254.917969 C 352.875 246.265625 355.800781 237.273438 357.996094 227.976562 L 311.882812 227.976562 L 357.996094 227.976562 C 359.777344 220.433594 361.074219 212.703125 361.855469 204.804688 C 359.269531 231.191406 350.84375 255.851562 337.878906 277.484375 M 361.855469 204.78125 L 361.855469 204.769531 L 361.855469 204.78125 M 362.4375 197.148438 L 362.4375 197.113281 L 362.4375 197.148438 M 362.4375 197.035156 C 362.449219 197.011719 362.449219 196.984375 362.449219 196.960938 C 362.449219 196.984375 362.449219 197.011719 362.4375 197.035156 M 362.449219 196.933594 C 362.574219 194.460938 362.652344 191.976562 362.675781 189.480469 C 362.652344 191.992188 362.574219 194.460938 362.449219 196.933594 M 362.675781 189.46875 C 362.6875 189.429688 362.6875 189.390625 362.6875 189.367188 C 362.6875 189.390625 362.6875 189.429688 362.675781 189.46875 M 362.6875 189.367188 L 362.6875 189.175781 L 362.6875 189.367188 M 362.6875 189.152344 L 362.6875 189.078125 L 362.6875 189.152344 M 362.6875 189.027344 L 362.6875 188.949219 L 362.6875 189.027344 M 362.6875 188.886719 L 362.6875 188.785156 L 362.6875 188.886719 M 362.6875 188.722656 L 362.6875 188.660156 L 362.6875 188.722656 M 362.6875 188.585938 L 362.6875 188.535156 L 362.6875 188.585938 M 362.6875 188.433594 L 362.6875 188.394531 L 362.6875 188.433594 M 362.6875 188.292969 L 362.6875 188.246094 L 362.6875 188.292969 M 362.6875 188.15625 L 362.6875 188.117188 L 362.6875 188.15625 M 362.6875 187.992188 L 362.6875 187.980469 L 362.6875 187.992188 M 362.6875 187.867188 L 362.6875 187.816406 L 362.6875 187.867188 M 362.6875 187.726562 L 362.6875 187.6875 L 362.6875 187.726562 M 362.6875 187.5625 L 362.6875 187.460938 L 362.6875 187.5625 M 362.6875 187.4375 L 362.6875 187.375 L 362.6875 187.4375 M 362.6875 187.347656 L 362.6875 187.246094 L 362.6875 187.347656 M 362.6875 187.234375 L 362.6875 187.148438 L 362.6875 187.234375 M 362.6875 187.121094 L 362.6875 187.046875 L 362.6875 187.121094 M 362.6875 187.035156 L 362.6875 186.933594 L 362.6875 187.035156 M 362.6875 186.917969 L 362.6875 186.832031 L 362.6875 186.917969 M 362.6875 186.804688 L 362.6875 186.605469 L 362.6875 186.804688 M 362.6875 186.605469 C 362.675781 184.234375 362.613281 181.875 362.511719 179.527344 C 362.613281 181.875 362.675781 184.234375 362.6875 186.605469 M 362.511719 179.527344 L 362.511719 179.441406 L 362.511719 179.527344 M 362.511719 179.414062 C 362.511719 179.390625 362.5 179.363281 362.5 179.339844 C 362.5 179.363281 362.511719 179.390625 362.511719 179.414062 M 362.5 179.277344 L 362.5 179.238281 L 362.5 179.277344 M 361.871094 170.433594 C 361.101562 162.5 359.789062 154.730469 357.996094 147.148438 C 355.800781 137.867188 352.875 128.859375 349.269531 120.207031 L 327.609375 120.207031 L 349.269531 120.207031 C 345.851562 112.007812 341.828125 104.136719 337.261719 96.632812 C 350.605469 118.527344 359.257812 143.59375 361.871094 170.433594 M 331.167969 87.296875 C 325.972656 79.867188 320.195312 72.855469 313.9375 66.320312 L 308.867188 66.320312 L 313.9375 66.320312 C 310.230469 62.460938 306.34375 58.765625 302.308594 55.261719 L 302.296875 55.246094 C 313.179688 64.695312 322.894531 75.464844 331.167969 87.296875 " clip-rule="nonzero"/></clipPath></defs><rect x="-37.5" width="450" fill="#ffffff" y="-37.499999" height="449.999989" fill-opacity="1"/><rect x="-37.5" width="450" fill="#ffffff" y="-37.499999" height="449.999989" fill-opacity="1"/><path fill="#353434" d="M 375.074219 187.5625 C 375.074219 291.121094 291.121094 375.074219 187.5625 375.074219 C 84.007812 375.074219 0.0507812 291.121094 0.0507812 187.5625 C 0.0585938 84.007812 84.007812 0.0507812 187.5625 0.0507812 C 291.121094 0.0507812 375.074219 84.007812 375.074219 187.5625 " fill-opacity="1" fill-rule="nonzero"/><path fill="#ffffff" d="M 12.941406 201.035156 C 13.648438 210.230469 15.066406 219.222656 17.125 227.976562 L 357.992188 227.976562 C 360.0625 219.222656 361.472656 210.230469 362.179688 201.035156 L 12.9375 201.035156 " fill-opacity="1" fill-rule="nonzero"/><path fill="#ffffff" d="M 267.433594 174.09375 L 362.183594 174.09375 C 361.476562 164.898438 360.066406 155.890625 357.996094 147.148438 L 267.433594 147.148438 L 267.433594 174.09375 " fill-opacity="1" fill-rule="nonzero"/><path fill="#ffffff" d="M 267.433594 120.207031 L 349.269531 120.207031 C 345.332031 110.785156 340.601562 101.765625 335.167969 93.265625 L 267.433594 93.265625 L 267.433594 120.207031 " fill-opacity="1" fill-rule="nonzero"/><path fill="#ffffff" d="M 39.96875 281.863281 L 335.160156 281.863281 C 340.597656 273.359375 345.328125 264.339844 349.261719 254.917969 L 25.867188 254.917969 C 29.792969 264.339844 34.511719 273.359375 39.960938 281.863281 " fill-opacity="1" fill-rule="nonzero"/><path fill="#ffffff" d="M 94.210938 335.746094 L 280.914062 335.746094 C 293 328.128906 304.085938 319.070312 313.925781 308.804688 L 61.1875 308.804688 C 71.039062 319.070312 82.125 328.128906 94.210938 335.746094 " fill-opacity="1" fill-rule="nonzero"/><path fill="#ffffff" d="M 267.433594 66.320312 L 313.9375 66.320312 C 304.085938 56.054688 293 46.996094 280.914062 39.375 L 267.433594 39.375 L 267.433594 66.320312 " fill-opacity="1" fill-rule="nonzero"/><path fill="#9f213b" d="M 280.914062 39.375 C 276.550781 36.617188 272.046875 34.035156 267.433594 31.664062 L 267.433594 39.375 L 280.914062 39.375 " fill-opacity="1" fill-rule="nonzero"/><path fill="#9f213b" d="M 267.433594 93.265625 L 335.167969 93.265625 C 328.972656 83.589844 321.847656 74.570312 313.9375 66.320312 L 267.433594 66.320312 L 267.433594 93.265625 " fill-opacity="1" fill-rule="nonzero"/><path fill="#9f213b" d="M 267.433594 147.148438 L 357.996094 147.148438 C 355.800781 137.867188 352.875 128.859375 349.269531 120.207031 L 267.433594 120.207031 L 267.433594 147.148438 " fill-opacity="1" fill-rule="nonzero"/><path fill="#9f213b" d="M 267.433594 201.035156 L 362.183594 201.035156 C 362.523438 196.582031 362.6875 192.089844 362.6875 187.5625 C 362.6875 183.035156 362.523438 178.53125 362.183594 174.09375 L 267.433594 174.09375 L 267.433594 201.035156 " fill-opacity="1" fill-rule="nonzero"/><path fill="#9f213b" d="M 25.867188 254.917969 L 349.261719 254.917969 C 352.871094 246.265625 355.796875 237.273438 357.992188 227.976562 L 17.125 227.976562 C 19.316406 237.273438 22.25 246.265625 25.859375 254.917969 " fill-opacity="1" fill-rule="nonzero"/><path fill="#9f213b" d="M 61.1875 308.804688 L 313.925781 308.804688 C 321.847656 300.554688 328.972656 291.535156 335.167969 281.863281 L 39.972656 281.863281 C 46.152344 291.535156 53.28125 300.554688 61.1875 308.804688 " fill-opacity="1" fill-rule="nonzero"/><path fill="#353b73" d="M 80.738281 48.777344 C 79.691406 49.597656 78.644531 50.417969 77.609375 51.261719 L 79.84375 51.261719 L 80.738281 48.777344 " fill-opacity="1" fill-rule="nonzero"/><path fill="#353b73" d="M 150.351562 31.808594 L 152.496094 25.867188 L 154.65625 31.808594 L 161 31.808594 L 156.8125 34.980469 L 155.980469 35.617188 L 157.757812 42.65625 L 152.496094 38.933594 L 147.25 42.65625 L 149.015625 35.617188 L 148.183594 34.980469 L 143.996094 31.808594 L 150.351562 31.808594 M 197.351562 31.808594 L 199.496094 25.867188 L 201.652344 31.808594 L 207.996094 31.808594 L 203.808594 34.980469 L 202.976562 35.617188 L 204.753906 42.65625 L 199.496094 38.933594 L 194.234375 42.65625 L 196.015625 35.617188 L 195.179688 34.980469 L 190.992188 31.808594 L 197.351562 31.808594 M 244.335938 31.808594 L 246.492188 25.867188 L 248.636719 31.808594 L 254.996094 31.808594 L 250.808594 34.980469 L 249.976562 35.617188 L 251.742188 42.65625 L 246.492188 38.933594 L 241.234375 42.65625 L 243.011719 35.617188 L 242.179688 34.980469 L 237.992188 31.808594 L 244.335938 31.808594 M 248.636719 68.050781 L 254.996094 68.050781 L 250.808594 71.214844 L 249.976562 71.847656 L 251.742188 78.898438 L 246.492188 75.164062 L 241.234375 78.898438 L 243.011719 71.847656 L 242.179688 71.214844 L 237.992188 68.050781 L 244.335938 68.050781 L 246.492188 62.109375 L 248.636719 68.050781 M 228.253906 98.335938 L 222.996094 94.613281 L 217.734375 98.335938 L 219.511719 91.296875 L 218.679688 90.652344 L 214.492188 87.5 L 220.835938 87.5 L 222.996094 81.546875 L 225.136719 87.5 L 231.496094 87.5 L 227.308594 90.652344 L 226.476562 91.296875 L 228.253906 98.335938 M 251.742188 115.136719 L 246.492188 111.402344 L 241.234375 115.136719 L 243.011719 108.085938 L 242.179688 107.453125 L 237.992188 104.277344 L 244.335938 104.277344 L 246.492188 98.335938 L 248.636719 104.277344 L 254.996094 104.277344 L 250.808594 107.453125 L 249.972656 108.085938 L 251.742188 115.136719 M 225.136719 123.726562 L 231.496094 123.726562 L 227.308594 126.890625 L 226.476562 127.535156 L 228.253906 134.574219 L 222.996094 130.851562 L 217.734375 134.574219 L 219.511719 127.535156 L 218.679688 126.890625 L 214.492188 123.726562 L 220.835938 123.726562 L 222.996094 117.785156 L 225.136719 123.726562 M 251.742188 151.363281 L 246.492188 147.640625 L 241.234375 151.363281 L 243.011719 144.324219 L 242.179688 143.679688 L 237.992188 140.515625 L 244.335938 140.515625 L 246.492188 134.574219 L 248.636719 140.515625 L 254.996094 140.515625 L 250.808594 143.679688 L 249.972656 144.324219 L 251.742188 151.363281 M 248.636719 176.753906 L 254.996094 176.753906 L 250.808594 179.917969 L 249.972656 180.5625 L 251.742188 187.601562 L 246.492188 183.878906 L 241.234375 187.601562 L 243.011719 180.5625 L 242.179688 179.917969 L 237.992188 176.753906 L 244.335938 176.753906 L 246.492188 170.8125 L 248.636719 176.753906 M 204.753906 187.601562 L 199.496094 183.878906 L 194.234375 187.601562 L 196.015625 180.5625 L 195.179688 179.917969 L 190.992188 176.753906 L 197.351562 176.753906 L 199.496094 170.8125 L 201.652344 176.753906 L 207.996094 176.753906 L 203.808594 179.917969 L 202.976562 180.5625 L 204.753906 187.601562 M 157.757812 187.601562 L 152.496094 183.878906 L 147.25 187.601562 L 149.015625 180.5625 L 148.183594 179.917969 L 143.996094 176.753906 L 150.351562 176.753906 L 152.496094 170.8125 L 154.652344 176.753906 L 161 176.753906 L 156.8125 179.917969 L 155.976562 180.5625 L 157.757812 187.601562 M 110.757812 187.601562 L 105.5 183.878906 L 100.253906 187.601562 L 102.019531 180.5625 L 101.183594 179.917969 L 96.996094 176.753906 L 103.355469 176.753906 L 105.5 170.8125 L 107.65625 176.753906 L 114 176.753906 L 109.8125 179.917969 L 108.980469 180.5625 L 110.757812 187.601562 M 63.761719 187.601562 L 58.5 183.878906 L 53.242188 187.601562 L 55.019531 180.5625 L 54.1875 179.917969 L 50 176.753906 L 56.34375 176.753906 L 58.5 170.8125 L 60.644531 176.753906 L 67.003906 176.753906 L 62.816406 179.917969 L 61.984375 180.5625 L 63.761719 187.601562 M 40.257812 170.8125 L 35.003906 167.078125 L 29.746094 170.8125 L 31.527344 163.761719 L 30.683594 163.128906 L 26.5 159.964844 L 32.855469 159.964844 L 35.003906 154.023438 L 37.152344 159.964844 L 43.503906 159.964844 L 39.320312 163.128906 L 38.484375 163.761719 L 40.257812 170.8125 M 54.1875 143.679688 L 50 140.515625 L 56.34375 140.515625 L 58.5 134.574219 L 60.644531 140.515625 L 67.003906 140.515625 L 62.816406 143.679688 L 61.984375 144.324219 L 63.761719 151.363281 L 58.5 147.640625 L 53.242188 151.363281 L 55.019531 144.324219 L 54.1875 143.679688 M 35.003906 117.785156 L 37.152344 123.726562 L 43.503906 123.726562 L 39.320312 126.890625 L 38.484375 127.535156 L 40.257812 134.574219 L 35.003906 130.851562 L 29.746094 134.574219 L 31.527344 127.535156 L 30.683594 126.890625 L 26.5 123.726562 L 32.855469 123.726562 L 35.003906 117.785156 M 77.6875 90.652344 L 73.5 87.5 L 79.84375 87.5 L 82 81.546875 L 84.144531 87.5 L 90.5 87.5 L 86.3125 90.652344 L 85.480469 91.296875 L 87.246094 98.335938 L 82 94.613281 L 76.753906 98.335938 L 78.519531 91.296875 L 77.6875 90.652344 M 105.5 62.109375 L 107.65625 68.050781 L 114 68.050781 L 109.8125 71.214844 L 108.980469 71.847656 L 110.757812 78.898438 L 105.5 75.164062 L 100.25 78.898438 L 102.019531 71.847656 L 101.183594 71.214844 L 96.996094 68.050781 L 103.355469 68.050781 L 105.5 62.109375 M 134.257812 62.109375 L 129 58.375 L 123.75 62.109375 L 125.515625 55.058594 L 124.683594 54.425781 L 120.496094 51.261719 L 126.839844 51.261719 L 129 45.308594 L 131.15625 51.261719 L 137.5 51.261719 L 133.3125 54.425781 L 132.480469 55.058594 L 134.257812 62.109375 M 154.652344 68.050781 L 161 68.050781 L 156.8125 71.214844 L 155.976562 71.847656 L 157.757812 78.898438 L 152.496094 75.164062 L 147.25 78.898438 L 149.015625 71.847656 L 148.183594 71.214844 L 143.996094 68.050781 L 150.351562 68.050781 L 152.496094 62.109375 L 154.652344 68.050781 M 181.253906 98.335938 L 175.996094 94.613281 L 170.75 98.335938 L 172.515625 91.296875 L 171.683594 90.652344 L 167.496094 87.5 L 173.851562 87.5 L 175.996094 81.546875 L 178.152344 87.5 L 184.496094 87.5 L 180.308594 90.652344 L 179.476562 91.296875 L 181.253906 98.335938 M 204.753906 115.136719 L 199.496094 111.402344 L 194.234375 115.136719 L 196.011719 108.085938 L 195.179688 107.453125 L 190.992188 104.277344 L 197.351562 104.277344 L 199.496094 98.335938 L 201.652344 104.277344 L 207.996094 104.277344 L 203.808594 107.453125 L 202.976562 108.085938 L 204.753906 115.136719 M 178.152344 123.726562 L 184.496094 123.726562 L 180.308594 126.890625 L 179.476562 127.535156 L 181.253906 134.574219 L 175.996094 130.851562 L 170.75 134.574219 L 172.515625 127.535156 L 171.683594 126.890625 L 167.496094 123.726562 L 173.851562 123.726562 L 175.996094 117.785156 L 178.152344 123.726562 M 181.253906 170.8125 L 175.996094 167.078125 L 170.75 170.8125 L 172.515625 163.761719 L 171.683594 163.128906 L 167.496094 159.964844 L 173.851562 159.964844 L 175.996094 154.023438 L 178.152344 159.964844 L 184.496094 159.964844 L 180.308594 163.128906 L 179.476562 163.761719 L 181.253906 170.8125 M 149.015625 144.324219 L 148.183594 143.679688 L 143.996094 140.515625 L 150.351562 140.515625 L 152.496094 134.574219 L 154.652344 140.515625 L 161 140.515625 L 156.8125 143.679688 L 155.976562 144.324219 L 157.757812 151.363281 L 152.496094 147.640625 L 147.25 151.363281 L 149.015625 144.324219 M 102.015625 144.324219 L 101.183594 143.679688 L 96.996094 140.515625 L 103.355469 140.515625 L 105.5 134.574219 L 107.65625 140.515625 L 114 140.515625 L 109.8125 143.679688 L 108.980469 144.324219 L 110.757812 151.363281 L 105.5 147.640625 L 100.25 151.363281 L 102.015625 144.324219 M 79.84375 159.964844 L 82 154.023438 L 84.144531 159.964844 L 90.5 159.964844 L 86.3125 163.128906 L 85.480469 163.761719 L 87.246094 170.8125 L 82 167.078125 L 76.753906 170.8125 L 78.519531 163.761719 L 77.6875 163.128906 L 73.5 159.964844 L 79.84375 159.964844 M 134.257812 170.8125 L 128.996094 167.078125 L 123.75 170.8125 L 125.515625 163.761719 L 124.683594 163.128906 L 120.496094 159.964844 L 126.839844 159.964844 L 128.996094 154.023438 L 131.15625 159.964844 L 137.5 159.964844 L 133.3125 163.128906 L 132.480469 163.761719 L 134.257812 170.8125 M 128.996094 117.785156 L 131.15625 123.726562 L 137.5 123.726562 L 133.3125 126.890625 L 132.480469 127.535156 L 134.257812 134.574219 L 128.996094 130.851562 L 123.75 134.574219 L 125.515625 127.535156 L 124.683594 126.890625 L 120.496094 123.726562 L 126.839844 123.726562 L 128.996094 117.785156 M 103.355469 104.277344 L 105.5 98.335938 L 107.65625 104.277344 L 114 104.277344 L 109.8125 107.453125 L 108.980469 108.085938 L 110.757812 115.136719 L 105.5 111.402344 L 100.25 115.136719 L 102.015625 108.085938 L 101.183594 107.453125 L 96.996094 104.277344 L 103.355469 104.277344 M 157.757812 115.136719 L 152.496094 111.402344 L 147.25 115.136719 L 149.015625 108.085938 L 148.183594 107.453125 L 143.996094 104.277344 L 150.351562 104.277344 L 152.496094 98.335938 L 154.652344 104.277344 L 161 104.277344 L 156.808594 107.453125 L 155.976562 108.085938 L 157.757812 115.136719 M 124.683594 90.652344 L 120.496094 87.5 L 126.839844 87.5 L 128.996094 81.546875 L 131.15625 87.5 L 137.5 87.5 L 133.3125 90.652344 L 132.480469 91.296875 L 134.257812 98.335938 L 128.996094 94.613281 L 123.75 98.335938 L 125.515625 91.296875 L 124.683594 90.652344 M 79.84375 123.726562 L 82 117.785156 L 84.144531 123.726562 L 90.5 123.726562 L 86.3125 126.890625 L 85.480469 127.535156 L 87.246094 134.574219 L 82 130.851562 L 76.753906 134.574219 L 78.519531 127.535156 L 77.6875 126.890625 L 73.5 123.726562 L 79.84375 123.726562 M 63.761719 115.136719 L 58.5 111.402344 L 53.242188 115.136719 L 55.019531 108.085938 L 54.1875 107.453125 L 50 104.277344 L 56.34375 104.277344 L 58.5 98.335938 L 60.644531 104.277344 L 67.003906 104.277344 L 62.816406 107.453125 L 61.980469 108.085938 L 63.761719 115.136719 M 203.808594 143.679688 L 202.976562 144.324219 L 204.753906 151.363281 L 199.496094 147.640625 L 194.234375 151.363281 L 196.011719 144.324219 L 195.179688 143.679688 L 190.992188 140.515625 L 197.351562 140.515625 L 199.496094 134.574219 L 201.652344 140.515625 L 207.996094 140.515625 L 203.808594 143.679688 M 228.253906 170.8125 L 222.992188 167.078125 L 217.734375 170.8125 L 219.511719 163.761719 L 218.679688 163.128906 L 214.492188 159.964844 L 220.835938 159.964844 L 222.992188 154.023438 L 225.136719 159.964844 L 231.496094 159.964844 L 227.308594 163.128906 L 226.476562 163.761719 L 228.253906 170.8125 M 201.652344 68.050781 L 207.996094 68.050781 L 203.808594 71.214844 L 202.976562 71.847656 L 204.753906 78.898438 L 199.496094 75.164062 L 194.234375 78.898438 L 196.011719 71.847656 L 195.179688 71.214844 L 190.992188 68.050781 L 197.351562 68.050781 L 199.496094 62.109375 L 201.652344 68.050781 M 220.835938 51.261719 L 222.992188 45.308594 L 225.136719 51.261719 L 231.496094 51.261719 L 227.308594 54.425781 L 226.476562 55.058594 L 228.253906 62.109375 L 222.992188 58.375 L 217.734375 62.109375 L 219.511719 55.058594 L 218.679688 54.425781 L 214.492188 51.261719 L 220.835938 51.261719 M 173.851562 51.261719 L 175.996094 45.308594 L 178.152344 51.261719 L 184.496094 51.261719 L 180.308594 54.425781 L 179.476562 55.058594 L 181.253906 62.109375 L 175.996094 58.375 L 170.75 62.109375 L 172.515625 55.058594 L 171.683594 54.425781 L 167.492188 51.261719 L 173.851562 51.261719 M 107.65625 31.808594 L 114 31.808594 L 109.8125 34.980469 L 108.980469 35.617188 L 110.757812 42.65625 L 105.5 38.933594 L 100.25 42.65625 L 102.015625 35.617188 L 101.347656 35.101562 C 94.867188 38.773438 88.648438 42.835938 82.71875 47.277344 L 84.144531 51.261719 L 90.5 51.261719 L 86.3125 54.425781 L 85.480469 55.058594 L 87.246094 62.109375 L 82 58.375 L 76.753906 62.109375 L 78.519531 55.058594 L 77.6875 54.425781 L 75.628906 52.875 C 70.257812 57.339844 65.148438 62.132812 60.34375 67.203125 L 60.644531 68.050781 L 67.003906 68.050781 L 62.8125 71.214844 L 61.980469 71.847656 L 63.761719 78.898438 L 58.5 75.164062 L 53.242188 78.898438 L 54.578125 73.613281 C 48.976562 80.132812 43.859375 87.082031 39.261719 94.386719 L 40.257812 98.335938 L 37.855469 96.644531 C 29.625 110.167969 23.171875 124.910156 18.832031 140.515625 L 20.007812 140.515625 L 18.535156 141.636719 C 17.765625 144.4375 17.074219 147.277344 16.453125 150.152344 L 16.761719 151.363281 L 16.261719 151.007812 C 14.625 158.730469 13.488281 166.625 12.90625 174.683594 L 13.65625 176.753906 L 20.007812 176.753906 L 15.824219 179.917969 L 14.984375 180.5625 L 16.761719 187.601562 L 12.46875 184.5625 C 12.453125 185.558594 12.433594 186.554688 12.433594 187.5625 C 12.433594 192.089844 12.605469 196.582031 12.941406 201.035156 L 267.429688 201.035156 L 267.429688 31.660156 C 243.492188 19.378906 216.359375 12.441406 187.613281 12.433594 L 187.511719 12.433594 C 158.726562 12.441406 131.570312 19.390625 107.605469 31.703125 L 107.65625 31.808594 " fill-opacity="1" fill-rule="nonzero"/><path fill="#9f213b" d="M 187.410156 362.6875 L 187.703125 362.6875 C 221.972656 362.664062 253.933594 352.789062 280.914062 335.746094 L 94.210938 335.746094 C 121.191406 352.789062 153.152344 362.664062 187.410156 362.6875 " fill-opacity="1" fill-rule="nonzero"/><path fill="#ffffff" d="M 100.253906 42.65625 L 105.5 38.933594 L 110.757812 42.65625 L 108.980469 35.617188 L 109.8125 34.980469 L 114 31.808594 L 107.65625 31.808594 L 107.605469 31.703125 C 105.5 32.792969 103.40625 33.933594 101.351562 35.101562 L 102.019531 35.617188 L 100.253906 42.65625 " fill-opacity="1" fill-rule="nonzero"/><path fill="#ffffff" d="M 149.015625 35.617188 L 147.25 42.65625 L 152.496094 38.933594 L 157.757812 42.65625 L 155.980469 35.617188 L 156.8125 34.980469 L 161 31.808594 L 154.65625 31.808594 L 152.496094 25.867188 L 150.351562 31.808594 L 143.996094 31.808594 L 148.183594 34.980469 L 149.015625 35.617188 " fill-opacity="1" fill-rule="nonzero"/><path fill="#ffffff" d="M 196.015625 35.617188 L 194.234375 42.65625 L 199.496094 38.933594 L 204.753906 42.65625 L 202.976562 35.617188 L 203.808594 34.980469 L 207.996094 31.808594 L 201.652344 31.808594 L 199.496094 25.867188 L 197.351562 31.808594 L 190.992188 31.808594 L 195.183594 34.980469 L 196.015625 35.617188 " fill-opacity="1" fill-rule="nonzero"/><path fill="#ffffff" d="M 243.011719 35.617188 L 241.234375 42.65625 L 246.492188 38.933594 L 251.742188 42.65625 L 249.976562 35.617188 L 250.808594 34.980469 L 254.996094 31.808594 L 248.636719 31.808594 L 246.492188 25.867188 L 244.335938 31.808594 L 237.992188 31.808594 L 242.179688 34.980469 L 243.011719 35.617188 " fill-opacity="1" fill-rule="nonzero"/><path fill="#ffffff" d="M 78.519531 55.058594 L 76.753906 62.109375 L 82 58.375 L 87.246094 62.109375 L 85.480469 55.058594 L 86.3125 54.425781 L 90.503906 51.261719 L 84.144531 51.261719 L 82.71875 47.277344 C 82.050781 47.765625 81.394531 48.285156 80.738281 48.777344 L 79.84375 51.261719 L 77.609375 51.261719 C 76.957031 51.792969 76.285156 52.332031 75.628906 52.875 L 77.6875 54.425781 L 78.519531 55.058594 " fill-opacity="1" fill-rule="nonzero"/><path fill="#ffffff" d="M 137.5 51.261719 L 131.15625 51.261719 L 129 45.308594 L 126.839844 51.261719 L 120.496094 51.261719 L 124.683594 54.425781 L 125.515625 55.058594 L 123.75 62.109375 L 129 58.375 L 134.257812 62.109375 L 132.480469 55.058594 L 133.3125 54.425781 L 137.5 51.261719 " fill-opacity="1" fill-rule="nonzero"/><path fill="#ffffff" d="M 172.515625 55.058594 L 170.75 62.109375 L 175.996094 58.375 L 181.257812 62.109375 L 179.476562 55.058594 L 180.308594 54.425781 L 184.496094 51.261719 L 178.152344 51.261719 L 175.996094 45.308594 L 173.851562 51.261719 L 167.496094 51.261719 L 171.683594 54.425781 L 172.515625 55.058594 " fill-opacity="1" fill-rule="nonzero"/><path fill="#ffffff" d="M 219.511719 55.058594 L 217.734375 62.109375 L 222.996094 58.375 L 228.253906 62.109375 L 226.476562 55.058594 L 227.308594 54.425781 L 231.496094 51.261719 L 225.140625 51.261719 L 222.996094 45.308594 L 220.835938 51.261719 L 214.492188 51.261719 L 218.679688 54.425781 L 219.511719 55.058594 " fill-opacity="1" fill-rule="nonzero"/><path fill="#ffffff" d="M 58.5 75.164062 L 63.761719 78.898438 L 61.984375 71.847656 L 62.816406 71.214844 L 67.003906 68.050781 L 60.644531 68.050781 L 60.34375 67.203125 C 58.375 69.296875 56.445312 71.429688 54.578125 73.613281 L 53.242188 78.898438 L 58.5 75.164062 " fill-opacity="1" fill-rule="nonzero"/><path fill="#ffffff" d="M 96.996094 68.050781 L 101.1875 71.214844 L 102.019531 71.847656 L 100.253906 78.898438 L 105.5 75.164062 L 110.757812 78.898438 L 108.980469 71.847656 L 109.8125 71.214844 L 114 68.050781 L 107.65625 68.050781 L 105.5 62.109375 L 103.355469 68.050781 L 96.996094 68.050781 " fill-opacity="1" fill-rule="nonzero"/><path fill="#ffffff" d="M 150.351562 68.050781 L 143.996094 68.050781 L 148.183594 71.214844 L 149.015625 71.847656 L 147.25 78.898438 L 152.496094 75.164062 L 157.757812 78.898438 L 155.980469 71.847656 L 156.8125 71.214844 L 161 68.050781 L 154.65625 68.050781 L 152.496094 62.109375 L 150.351562 68.050781 " fill-opacity="1" fill-rule="nonzero"/><path fill="#ffffff" d="M 197.351562 68.050781 L 190.992188 68.050781 L 195.183594 71.214844 L 196.015625 71.847656 L 194.234375 78.898438 L 199.496094 75.164062 L 204.753906 78.898438 L 202.976562 71.847656 L 203.808594 71.214844 L 207.996094 68.050781 L 201.652344 68.050781 L 199.496094 62.109375 L 197.351562 68.050781 " fill-opacity="1" fill-rule="nonzero"/><path fill="#ffffff" d="M 244.335938 68.050781 L 237.992188 68.050781 L 242.179688 71.214844 L 243.011719 71.847656 L 241.234375 78.898438 L 246.492188 75.164062 L 251.742188 78.898438 L 249.976562 71.847656 L 250.808594 71.214844 L 254.996094 68.050781 L 248.636719 68.050781 L 246.492188 62.109375 L 244.335938 68.050781 " fill-opacity="1" fill-rule="nonzero"/><path fill="#ffffff" d="M 39.261719 94.386719 C 38.792969 95.132812 38.320312 95.875 37.859375 96.644531 L 40.257812 98.335938 L 39.261719 94.386719 " fill-opacity="1" fill-rule="nonzero"/><path fill="#ffffff" d="M 76.753906 98.335938 L 82 94.613281 L 87.246094 98.335938 L 85.480469 91.296875 L 86.3125 90.652344 L 90.503906 87.5 L 84.144531 87.5 L 82 81.546875 L 79.84375 87.5 L 73.5 87.5 L 77.6875 90.652344 L 78.519531 91.296875 L 76.753906 98.335938 " fill-opacity="1" fill-rule="nonzero"/><path fill="#ffffff" d="M 123.75 98.335938 L 129 94.613281 L 134.257812 98.335938 L 132.480469 91.296875 L 133.3125 90.652344 L 137.5 87.5 L 131.15625 87.5 L 129 81.546875 L 126.839844 87.5 L 120.496094 87.5 L 124.683594 90.652344 L 125.515625 91.296875 L 123.75 98.335938 " fill-opacity="1" fill-rule="nonzero"/><path fill="#ffffff" d="M 180.308594 90.652344 L 184.496094 87.5 L 178.152344 87.5 L 175.996094 81.546875 L 173.851562 87.5 L 167.496094 87.5 L 171.683594 90.652344 L 172.515625 91.296875 L 170.75 98.335938 L 175.996094 94.613281 L 181.257812 98.335938 L 179.476562 91.296875 L 180.308594 90.652344 " fill-opacity="1" fill-rule="nonzero"/><path fill="#ffffff" d="M 227.308594 90.652344 L 231.496094 87.5 L 225.140625 87.5 L 222.996094 81.546875 L 220.835938 87.5 L 214.492188 87.5 L 218.679688 90.652344 L 219.511719 91.296875 L 217.734375 98.335938 L 222.996094 94.613281 L 228.253906 98.335938 L 226.476562 91.296875 L 227.308594 90.652344 " fill-opacity="1" fill-rule="nonzero"/><path fill="#ffffff" d="M 67.003906 104.277344 L 60.644531 104.277344 L 58.5 98.335938 L 56.34375 104.277344 L 50 104.277344 L 54.1875 107.453125 L 55.019531 108.085938 L 53.242188 115.136719 L 58.5 111.402344 L 63.761719 115.136719 L 61.984375 108.085938 L 62.816406 107.453125 L 67.003906 104.277344 " fill-opacity="1" fill-rule="nonzero"/><path fill="#ffffff" d="M 102.019531 108.085938 L 100.253906 115.136719 L 105.5 111.402344 L 110.757812 115.136719 L 108.980469 108.085938 L 109.8125 107.453125 L 114 104.277344 L 107.65625 104.277344 L 105.5 98.335938 L 103.355469 104.277344 L 96.996094 104.277344 L 101.1875 107.453125 L 102.019531 108.085938 " fill-opacity="1" fill-rule="nonzero"/><path fill="#ffffff" d="M 161 104.277344 L 154.65625 104.277344 L 152.496094 98.335938 L 150.351562 104.277344 L 143.996094 104.277344 L 148.183594 107.453125 L 149.015625 108.085938 L 147.25 115.136719 L 152.496094 111.402344 L 157.757812 115.136719 L 155.980469 108.085938 L 156.8125 107.453125 L 161 104.277344 " fill-opacity="1" fill-rule="nonzero"/><path fill="#ffffff" d="M 207.996094 104.277344 L 201.652344 104.277344 L 199.496094 98.335938 L 197.351562 104.277344 L 190.992188 104.277344 L 195.183594 107.453125 L 196.015625 108.085938 L 194.234375 115.136719 L 199.496094 111.402344 L 204.753906 115.136719 L 202.976562 108.085938 L 203.808594 107.453125 L 207.996094 104.277344 " fill-opacity="1" fill-rule="nonzero"/><path fill="#ffffff" d="M 254.996094 104.277344 L 248.636719 104.277344 L 246.492188 98.335938 L 244.335938 104.277344 L 237.992188 104.277344 L 242.179688 107.453125 L 243.011719 108.085938 L 241.234375 115.136719 L 246.492188 111.402344 L 251.742188 115.136719 L 249.976562 108.085938 L 250.808594 107.453125 L 254.996094 104.277344 " fill-opacity="1" fill-rule="nonzero"/><path fill="#ffffff" d="M 26.5 123.726562 L 30.683594 126.890625 L 31.527344 127.535156 L 29.746094 134.574219 L 35.003906 130.851562 L 40.257812 134.574219 L 38.484375 127.535156 L 39.320312 126.890625 L 43.503906 123.726562 L 37.152344 123.726562 L 35.003906 117.785156 L 32.855469 123.726562 L 26.5 123.726562 " fill-opacity="1" fill-rule="nonzero"/><path fill="#ffffff" d="M 78.519531 127.535156 L 76.753906 134.574219 L 82 130.851562 L 87.246094 134.574219 L 85.480469 127.535156 L 86.3125 126.890625 L 90.503906 123.726562 L 84.144531 123.726562 L 82 117.785156 L 79.84375 123.726562 L 73.5 123.726562 L 77.6875 126.890625 L 78.519531 127.535156 " fill-opacity="1" fill-rule="nonzero"/><path fill="#ffffff" d="M 120.496094 123.726562 L 124.683594 126.890625 L 125.515625 127.535156 L 123.75 134.574219 L 129 130.851562 L 134.257812 134.574219 L 132.480469 127.535156 L 133.3125 126.890625 L 137.5 123.726562 L 131.15625 123.726562 L 129 117.785156 L 126.839844 123.726562 L 120.496094 123.726562 " fill-opacity="1" fill-rule="nonzero"/><path fill="#ffffff" d="M 173.851562 123.726562 L 167.496094 123.726562 L 171.683594 126.890625 L 172.515625 127.535156 L 170.75 134.574219 L 175.996094 130.851562 L 181.257812 134.574219 L 179.476562 127.535156 L 180.308594 126.890625 L 184.496094 123.726562 L 178.152344 123.726562 L 175.996094 117.785156 L 173.851562 123.726562 " fill-opacity="1" fill-rule="nonzero"/><path fill="#ffffff" d="M 220.835938 123.726562 L 214.492188 123.726562 L 218.679688 126.890625 L 219.511719 127.535156 L 217.734375 134.574219 L 222.996094 130.851562 L 228.253906 134.574219 L 226.476562 127.535156 L 227.308594 126.890625 L 231.496094 123.726562 L 225.140625 123.726562 L 222.996094 117.785156 L 220.835938 123.726562 " fill-opacity="1" fill-rule="nonzero"/><path fill="#ffffff" d="M 16.453125 150.152344 C 16.390625 150.429688 16.328125 150.71875 16.261719 151.007812 L 16.761719 151.363281 L 16.453125 150.152344 " fill-opacity="1" fill-rule="nonzero"/><path fill="#ffffff" d="M 18.835938 140.515625 C 18.726562 140.894531 18.628906 141.257812 18.535156 141.636719 L 20.007812 140.515625 L 18.835938 140.515625 " fill-opacity="1" fill-rule="nonzero"/><path fill="#ffffff" d="M 53.242188 151.363281 L 58.5 147.640625 L 63.761719 151.363281 L 61.984375 144.324219 L 62.816406 143.679688 L 67.003906 140.515625 L 60.644531 140.515625 L 58.5 134.574219 L 56.34375 140.515625 L 50 140.515625 L 54.1875 143.679688 L 55.019531 144.324219 L 53.242188 151.363281 " fill-opacity="1" fill-rule="nonzero"/><path fill="#ffffff" d="M 110.757812 151.363281 L 108.980469 144.324219 L 109.8125 143.679688 L 114 140.515625 L 107.65625 140.515625 L 105.5 134.574219 L 103.355469 140.515625 L 96.996094 140.515625 L 101.1875 143.679688 L 102.019531 144.324219 L 100.253906 151.363281 L 105.5 147.640625 L 110.757812 151.363281 " fill-opacity="1" fill-rule="nonzero"/><path fill="#ffffff" d="M 157.757812 151.363281 L 155.980469 144.324219 L 156.8125 143.679688 L 161 140.515625 L 154.65625 140.515625 L 152.496094 134.574219 L 150.351562 140.515625 L 143.996094 140.515625 L 148.183594 143.679688 L 149.015625 144.324219 L 147.25 151.363281 L 152.496094 147.640625 L 157.757812 151.363281 " fill-opacity="1" fill-rule="nonzero"/><path fill="#ffffff" d="M 199.496094 134.574219 L 197.351562 140.515625 L 190.992188 140.515625 L 195.183594 143.679688 L 196.015625 144.324219 L 194.234375 151.363281 L 199.496094 147.640625 L 204.753906 151.363281 L 202.976562 144.324219 L 203.808594 143.679688 L 207.996094 140.515625 L 201.652344 140.515625 L 199.496094 134.574219 " fill-opacity="1" fill-rule="nonzero"/><path fill="#ffffff" d="M 250.808594 143.679688 L 254.996094 140.515625 L 248.636719 140.515625 L 246.492188 134.574219 L 244.335938 140.515625 L 237.992188 140.515625 L 242.179688 143.679688 L 243.011719 144.324219 L 241.234375 151.363281 L 246.492188 147.640625 L 251.742188 151.363281 L 249.976562 144.324219 L 250.808594 143.679688 " fill-opacity="1" fill-rule="nonzero"/><path fill="#ffffff" d="M 43.503906 159.964844 L 37.152344 159.964844 L 35.003906 154.023438 L 32.855469 159.964844 L 26.5 159.964844 L 30.683594 163.128906 L 31.527344 163.761719 L 29.746094 170.8125 L 35.003906 167.078125 L 40.257812 170.8125 L 38.484375 163.761719 L 39.320312 163.128906 L 43.503906 159.964844 " fill-opacity="1" fill-rule="nonzero"/><path fill="#ffffff" d="M 78.519531 163.761719 L 76.753906 170.8125 L 82 167.078125 L 87.246094 170.8125 L 85.480469 163.761719 L 86.3125 163.128906 L 90.503906 159.964844 L 84.144531 159.964844 L 82 154.023438 L 79.84375 159.964844 L 73.5 159.964844 L 77.6875 163.128906 L 78.519531 163.761719 " fill-opacity="1" fill-rule="nonzero"/><path fill="#ffffff" d="M 137.5 159.964844 L 131.15625 159.964844 L 129 154.023438 L 126.839844 159.964844 L 120.496094 159.964844 L 124.683594 163.128906 L 125.515625 163.761719 L 123.75 170.8125 L 129 167.078125 L 134.257812 170.8125 L 132.480469 163.761719 L 133.3125 163.128906 L 137.5 159.964844 " fill-opacity="1" fill-rule="nonzero"/><path fill="#ffffff" d="M 184.496094 159.964844 L 178.152344 159.964844 L 175.996094 154.023438 L 173.851562 159.964844 L 167.496094 159.964844 L 171.683594 163.128906 L 172.515625 163.761719 L 170.75 170.8125 L 175.996094 167.078125 L 181.257812 170.8125 L 179.476562 163.761719 L 180.308594 163.128906 L 184.496094 159.964844 " fill-opacity="1" fill-rule="nonzero"/><path fill="#ffffff" d="M 231.496094 159.964844 L 225.140625 159.964844 L 222.996094 154.023438 L 220.835938 159.964844 L 214.492188 159.964844 L 218.679688 163.128906 L 219.511719 163.761719 L 217.734375 170.8125 L 222.996094 167.078125 L 228.253906 170.8125 L 226.476562 163.761719 L 227.308594 163.128906 L 231.496094 159.964844 " fill-opacity="1" fill-rule="nonzero"/><path fill="#ffffff" d="M 14.984375 180.5625 L 15.824219 179.917969 L 20.007812 176.753906 L 13.65625 176.753906 L 12.90625 174.683594 C 12.671875 177.953125 12.527344 181.242188 12.46875 184.5625 L 16.761719 187.601562 L 14.984375 180.5625 " fill-opacity="1" fill-rule="nonzero"/><path fill="#ffffff" d="M 67.003906 176.753906 L 60.644531 176.753906 L 58.5 170.8125 L 56.34375 176.753906 L 50 176.753906 L 54.1875 179.917969 L 55.019531 180.5625 L 53.242188 187.601562 L 58.5 183.878906 L 63.761719 187.601562 L 61.984375 180.5625 L 62.816406 179.917969 L 67.003906 176.753906 " fill-opacity="1" fill-rule="nonzero"/><path fill="#ffffff" d="M 114 176.753906 L 107.65625 176.753906 L 105.5 170.8125 L 103.355469 176.753906 L 96.996094 176.753906 L 101.1875 179.917969 L 102.019531 180.5625 L 100.253906 187.601562 L 105.5 183.878906 L 110.757812 187.601562 L 108.980469 180.5625 L 109.8125 179.917969 L 114 176.753906 " fill-opacity="1" fill-rule="nonzero"/><path fill="#ffffff" d="M 161 176.753906 L 154.65625 176.753906 L 152.496094 170.8125 L 150.351562 176.753906 L 143.996094 176.753906 L 148.183594 179.917969 L 149.015625 180.5625 L 147.25 187.601562 L 152.496094 183.878906 L 157.757812 187.601562 L 155.980469 180.5625 L 156.8125 179.917969 L 161 176.753906 " fill-opacity="1" fill-rule="nonzero"/><path fill="#ffffff" d="M 207.996094 176.753906 L 201.652344 176.753906 L 199.496094 170.8125 L 197.351562 176.753906 L 190.992188 176.753906 L 195.183594 179.917969 L 196.015625 180.5625 L 194.234375 187.601562 L 199.496094 183.878906 L 204.753906 187.601562 L 202.976562 180.5625 L 203.808594 179.917969 L 207.996094 176.753906 " fill-opacity="1" fill-rule="nonzero"/><path fill="#ffffff" d="M 244.335938 176.753906 L 237.992188 176.753906 L 242.179688 179.917969 L 243.011719 180.5625 L 241.234375 187.601562 L 246.492188 183.878906 L 251.742188 187.601562 L 249.976562 180.5625 L 250.808594 179.917969 L 254.996094 176.753906 L 248.636719 176.753906 L 246.492188 170.8125 L 244.335938 176.753906 " fill-opacity="1" fill-rule="nonzero"/><g clip-path="url(#f2a2ab80a8)"><g clip-path="url(#2083bf57b8)"><path fill="#282b2c" d="M 53.609375 362.6875 L 362.6875 362.6875 L 362.6875 55.246094 L 53.609375 55.246094 Z M 53.609375 362.6875 " fill-opacity="1" fill-rule="nonzero"/></g></g><path fill="#b0c0c8" d="M 357.996094 227.976562 L 311.882812 227.976562 C 316.15625 219.375 319.765625 210.367188 322.601562 201.035156 L 362.183594 201.035156 C 362.082031 202.28125 361.984375 203.53125 361.855469 204.769531 L 361.855469 204.804688 C 361.074219 212.703125 359.777344 220.433594 357.996094 227.976562 " fill-opacity="1" fill-rule="nonzero"/><path fill="#b0c0c8" d="M 362.183594 174.09375 L 328.507812 174.09375 C 329.589844 166.222656 330.144531 158.199219 330.144531 150.039062 C 330.144531 149.066406 330.132812 148.109375 330.121094 147.148438 L 357.996094 147.148438 C 359.789062 154.730469 361.101562 162.5 361.871094 170.433594 C 361.984375 171.644531 362.082031 172.867188 362.183594 174.09375 " fill-opacity="1" fill-rule="nonzero"/><path fill="#b0c0c8" d="M 349.269531 120.207031 L 327.609375 120.207031 C 326.023438 110.960938 323.714844 101.957031 320.738281 93.265625 L 335.167969 93.265625 C 335.871094 94.375 336.578125 95.496094 337.261719 96.632812 C 341.828125 104.136719 345.851562 112.007812 349.269531 120.207031 " fill-opacity="1" fill-rule="nonzero"/><path fill="#b0c0c8" d="M 335.167969 281.863281 L 270.308594 281.863281 C 279.539062 273.789062 287.902344 264.757812 295.269531 254.917969 L 349.269531 254.917969 C 346 262.753906 342.191406 270.28125 337.878906 277.484375 C 336.996094 278.960938 336.085938 280.421875 335.167969 281.863281 " fill-opacity="1" fill-rule="nonzero"/><path fill="#b0c0c8" d="M 280.914062 335.746094 L 94.210938 335.746094 C 82.125 328.128906 71.039062 319.070312 61.1875 308.804688 L 81.015625 308.804688 C 103.492188 319.296875 128.570312 325.164062 155.007812 325.164062 C 181.457031 325.164062 206.535156 319.296875 229.011719 308.804688 L 313.925781 308.804688 C 304.085938 319.070312 293 328.128906 280.914062 335.746094 " fill-opacity="1" fill-rule="nonzero"/><path fill="#b0c0c8" d="M 313.9375 66.320312 L 308.867188 66.320312 C 306.8125 62.550781 304.628906 58.867188 302.308594 55.261719 C 306.34375 58.765625 310.230469 62.460938 313.9375 66.320312 " fill-opacity="1" fill-rule="nonzero"/><path fill="#721b2e" d="M 335.167969 93.265625 L 320.738281 93.265625 C 317.519531 83.890625 313.546875 74.886719 308.867188 66.320312 L 313.9375 66.320312 C 320.195312 72.855469 325.972656 79.867188 331.167969 87.296875 C 332.542969 89.253906 333.867188 91.246094 335.167969 93.265625 " fill-opacity="1" fill-rule="nonzero"/><path fill="#721b2e" d="M 357.996094 147.148438 L 330.121094 147.148438 C 329.96875 137.980469 329.113281 128.984375 327.609375 120.207031 L 349.269531 120.207031 C 352.875 128.859375 355.800781 137.867188 357.996094 147.148438 " fill-opacity="1" fill-rule="nonzero"/><path fill="#721b2e" d="M 362.183594 201.035156 L 322.601562 201.035156 C 325.253906 192.332031 327.234375 183.3125 328.507812 174.09375 L 362.183594 174.09375 C 362.3125 175.792969 362.425781 177.523438 362.5 179.238281 L 362.5 179.339844 C 362.5 179.363281 362.511719 179.390625 362.511719 179.414062 L 362.511719 179.527344 C 362.613281 181.875 362.675781 184.234375 362.6875 186.605469 L 362.6875 189.367188 C 362.6875 189.390625 362.6875 189.429688 362.675781 189.46875 L 362.675781 189.480469 C 362.652344 191.976562 362.574219 194.460938 362.449219 196.933594 L 362.449219 196.960938 C 362.449219 196.984375 362.449219 197.011719 362.4375 197.035156 L 362.4375 197.148438 C 362.359375 198.449219 362.285156 199.746094 362.183594 201.035156 " fill-opacity="1" fill-rule="nonzero"/><path fill="#721b2e" d="M 349.269531 254.917969 L 295.269531 254.917969 C 301.589844 246.492188 307.152344 237.488281 311.882812 227.976562 L 357.996094 227.976562 C 355.800781 237.273438 352.875 246.265625 349.269531 254.917969 " fill-opacity="1" fill-rule="nonzero"/><path fill="#721b2e" d="M 313.925781 308.804688 L 229.011719 308.804688 C 244.058594 301.777344 257.945312 292.671875 270.308594 281.863281 L 335.167969 281.863281 C 333.753906 284.070312 332.289062 286.226562 330.789062 288.371094 C 325.695312 295.597656 320.042969 302.433594 313.925781 308.804688 M 81.015625 308.804688 L 61.1875 308.804688 C 58.578125 306.078125 56.054688 303.265625 53.609375 300.378906 C 48.800781 294.664062 44.34375 288.648438 40.28125 282.355469 C 52.496094 292.949219 66.195312 301.878906 81.015625 308.804688 " fill-opacity="1" fill-rule="nonzero"/><path fill="#721b2e" d="M 187.5625 362.6875 L 186.503906 362.6875 C 152.585938 362.488281 120.949219 352.636719 94.210938 335.746094 L 280.914062 335.746094 C 254.277344 352.574219 222.792969 362.410156 189.027344 362.6875 L 187.5625 362.6875 " fill-opacity="1" fill-rule="nonzero"/><path fill="#ffffff" d="M 19.835938 212.082031 C 19.683594 212.082031 19.535156 212.007812 19.386719 211.871094 C 18.453125 210.9375 17.671875 207.0625 17.375 201.035156 L 24.324219 201.035156 C 22.308594 207.984375 20.976562 212.082031 19.835938 212.082031 " fill-opacity="1" fill-rule="nonzero"/><path fill="#645e92" d="M 24.324219 201.035156 L 17.375 201.035156 C 17.089844 195.179688 17.269531 187.296875 18.214844 178.117188 L 20.007812 176.753906 L 18.355469 176.753906 C 19.957031 162.183594 23.488281 144.5 30.136719 126.488281 L 30.683594 126.890625 L 31.527344 127.535156 L 29.746094 134.574219 L 35.003906 130.851562 L 40.257812 134.574219 L 38.484375 127.535156 L 39.320312 126.890625 L 43.503906 123.726562 L 37.152344 123.726562 L 35.003906 117.785156 L 32.855469 123.726562 L 31.183594 123.726562 C 37.578125 107.175781 46.65625 90.476562 59.335938 75.757812 L 63.761719 78.898438 L 62.160156 72.566406 C 63.082031 71.554688 64.027344 70.558594 64.972656 69.578125 L 67.003906 68.050781 L 66.5 68.050781 C 70.117188 64.441406 73.890625 61.085938 77.789062 57.972656 L 76.753906 62.109375 L 82 58.375 L 87.246094 62.109375 L 85.480469 55.058594 L 86.3125 54.425781 L 90.503906 51.261719 L 86.871094 51.261719 C 93.289062 46.882812 99.925781 43.066406 106.648438 39.746094 L 110.757812 42.65625 L 109.660156 38.300781 C 141.386719 23.367188 174.484375 19.179688 193.65625 19.179688 C 202.773438 19.179688 208.753906 20.125 209.941406 21.3125 C 211.175781 22.539062 207.140625 23.914062 199.582031 26.113281 L 199.496094 25.867188 L 199.382812 26.171875 C 189.746094 28.972656 174.46875 33.113281 157.078125 39.992188 L 155.980469 35.617188 L 156.8125 34.980469 L 161 31.808594 L 154.65625 31.808594 L 152.496094 25.867188 L 150.351562 31.808594 L 143.996094 31.808594 L 148.183594 34.980469 L 149.015625 35.617188 L 147.25 42.65625 L 152.496094 38.933594 L 155.109375 40.78125 C 147.765625 43.75 140.074219 47.199219 132.277344 51.261719 L 131.15625 51.261719 L 129 45.308594 L 126.839844 51.261719 L 120.496094 51.261719 L 124.683594 54.425781 L 125.402344 54.96875 C 119.273438 58.425781 113.128906 62.261719 107.101562 66.535156 L 105.5 62.109375 L 103.355469 68.050781 L 97 68.050781 L 100.984375 71.050781 C 95.132812 75.566406 89.429688 80.511719 84.007812 85.9375 L 83.703125 86.238281 L 82 81.546875 L 79.84375 87.5 L 73.5 87.5 L 77.6875 90.652344 L 78.519531 91.296875 L 78.394531 91.828125 C 72.628906 98.171875 67.480469 104.792969 62.851562 111.554688 L 61.984375 108.085938 L 62.816406 107.453125 L 67.003906 104.277344 L 60.644531 104.277344 L 58.5 98.335938 L 56.34375 104.277344 L 50 104.277344 L 54.1875 107.453125 L 55.019531 108.085938 L 53.242188 115.136719 L 58.5 111.402344 L 61.503906 113.535156 C 51.070312 129.164062 43.414062 145.34375 37.691406 159.964844 L 37.152344 159.964844 L 35.003906 154.023438 L 32.855469 159.964844 L 26.5 159.964844 L 30.683594 163.128906 L 31.527344 163.761719 L 29.746094 170.8125 L 35.003906 167.078125 C 29.96875 180.929688 26.679688 192.910156 24.324219 201.035156 " fill-opacity="1" fill-rule="nonzero"/><path fill="#ffffff" d="M 110.757812 42.65625 L 106.648438 39.746094 C 107.65625 39.253906 108.652344 38.769531 109.660156 38.300781 L 110.757812 42.65625 " fill-opacity="1" fill-rule="nonzero"/><path fill="#ffffff" d="M 147.25 42.65625 L 149.015625 35.617188 L 148.183594 34.980469 L 143.996094 31.808594 L 150.351562 31.808594 L 152.496094 25.867188 L 154.65625 31.808594 L 161 31.808594 L 156.8125 34.980469 L 155.980469 35.617188 L 157.074219 39.992188 C 156.421875 40.253906 155.765625 40.515625 155.109375 40.78125 L 152.496094 38.933594 L 147.25 42.65625 " fill-opacity="1" fill-rule="nonzero"/><path fill="#ffffff" d="M 199.382812 26.171875 L 199.496094 25.867188 L 199.582031 26.113281 C 199.519531 26.132812 199.457031 26.152344 199.382812 26.171875 " fill-opacity="1" fill-rule="nonzero"/><path fill="#ffffff" d="M 87.246094 62.109375 L 82 58.375 L 76.753906 62.109375 L 77.789062 57.972656 C 80.75 55.601562 83.792969 53.355469 86.871094 51.261719 L 90.503906 51.261719 L 86.3125 54.425781 L 85.480469 55.058594 L 87.246094 62.109375 " fill-opacity="1" fill-rule="nonzero"/><path fill="#ffffff" d="M 125.402344 54.96875 L 124.683594 54.425781 L 120.496094 51.261719 L 126.839844 51.261719 L 129 45.308594 L 131.15625 51.261719 L 132.277344 51.261719 C 129.996094 52.445312 127.699219 53.683594 125.402344 54.96875 " fill-opacity="1" fill-rule="nonzero"/><path fill="#ffffff" d="M 63.761719 78.898438 L 59.335938 75.757812 C 60.253906 74.683594 61.199219 73.613281 62.160156 72.566406 L 63.761719 78.898438 M 64.972656 69.578125 C 65.414062 69.121094 65.855469 68.679688 66.308594 68.238281 C 66.371094 68.175781 66.433594 68.101562 66.5 68.050781 L 67.003906 68.050781 L 64.972656 69.578125 " fill-opacity="1" fill-rule="nonzero"/><path fill="#ffffff" d="M 100.984375 71.050781 L 96.996094 68.050781 L 103.355469 68.050781 L 105.5 62.109375 L 107.101562 66.535156 C 105.046875 67.988281 103.003906 69.5 100.984375 71.050781 " fill-opacity="1" fill-rule="nonzero"/><path fill="#ffffff" d="M 78.394531 91.828125 L 78.519531 91.296875 L 77.6875 90.652344 L 73.5 87.5 L 79.84375 87.5 L 82 81.546875 L 83.703125 86.238281 C 81.875 88.066406 80.109375 89.933594 78.394531 91.828125 " fill-opacity="1" fill-rule="nonzero"/><path fill="#ffffff" d="M 53.242188 115.136719 L 55.019531 108.085938 L 54.1875 107.453125 L 50 104.277344 L 56.34375 104.277344 L 58.5 98.335938 L 60.644531 104.277344 L 67.003906 104.277344 L 62.816406 107.453125 L 61.984375 108.085938 L 62.851562 111.554688 C 62.398438 112.210938 61.957031 112.867188 61.503906 113.535156 L 58.5 111.402344 L 53.242188 115.136719 " fill-opacity="1" fill-rule="nonzero"/><path fill="#ffffff" d="M 40.257812 134.574219 L 35.003906 130.851562 L 29.746094 134.574219 L 31.527344 127.535156 L 30.683594 126.890625 L 30.136719 126.488281 C 30.476562 125.566406 30.828125 124.648438 31.183594 123.726562 L 32.855469 123.726562 L 35.003906 117.785156 L 37.152344 123.726562 L 43.503906 123.726562 L 39.320312 126.890625 L 38.484375 127.535156 L 40.257812 134.574219 " fill-opacity="1" fill-rule="nonzero"/><path fill="#ffffff" d="M 29.746094 170.8125 L 31.527344 163.761719 L 30.683594 163.128906 L 26.5 159.964844 L 32.855469 159.964844 L 35.003906 154.023438 L 37.152344 159.964844 L 37.691406 159.964844 C 36.746094 162.386719 35.847656 164.757812 35.003906 167.078125 L 29.746094 170.8125 " fill-opacity="1" fill-rule="nonzero"/><path fill="#ffffff" d="M 18.214844 178.117188 C 18.257812 177.660156 18.308594 177.207031 18.355469 176.753906 L 20.007812 176.753906 L 18.214844 178.117188 " fill-opacity="1" fill-rule="nonzero"/></svg>