<svg xmlns="http://www.w3.org/2000/svg" xmlns:xlink="http://www.w3.org/1999/xlink" width="500" zoomAndPan="magnify" viewBox="0 0 375 374.999991" height="500" preserveAspectRatio="xMidYMid meet" version="1.0"><rect x="-37.5" width="450" fill="#ffffff" y="-37.499999" height="449.999989" fill-opacity="1"/><rect x="-37.5" width="450" fill="#ffffff" y="-37.499999" height="449.999989" fill-opacity="1"/><path fill="#353434" d="M 375.074219 187.5625 C 375.074219 291.121094 291.121094 375.074219 187.5625 375.074219 C 84.007812 375.074219 0.0507812 291.121094 0.0507812 187.5625 C 0.0585938 84.007812 84.007812 0.0507812 187.5625 0.0507812 C 291.121094 0.0507812 375.074219 84.007812 375.074219 187.5625 " fill-opacity="1" fill-rule="nonzero"/><path fill="#2548a3" d="M 362.703125 187.5625 C 362.703125 167.089844 359.171875 147.453125 352.710938 129.1875 L 22.414062 129.1875 C 15.957031 147.453125 12.433594 167.089844 12.433594 187.5625 C 12.433594 208.035156 15.957031 227.675781 22.410156 245.9375 L 352.710938 245.9375 C 359.167969 227.675781 362.699219 208.035156 362.699219 187.5625 " fill-opacity="1" fill-rule="nonzero"/><path fill="#ffffff" d="M 187.5625 12.433594 C 111.3125 12.433594 46.457031 61.164062 22.414062 129.1875 L 352.710938 129.1875 C 328.671875 61.164062 263.8125 12.433594 187.5625 12.433594 " fill-opacity="1" fill-rule="nonzero"/><path fill="#ee2c2e" d="M 352.710938 245.9375 L 22.414062 245.9375 C 46.457031 313.949219 111.3125 362.6875 187.5625 362.6875 C 263.8125 362.6875 328.671875 313.949219 352.710938 245.9375 " fill-opacity="1" fill-rule="nonzero"/><path fill="#282b2c" d="M 187.5625 362.6875 L 187.460938 362.6875 L 187.5625 362.6875 M 187.6875 362.6875 L 187.726562 362.6875 L 187.6875 362.6875 M 187.425781 362.6875 L 187.359375 362.6875 L 187.425781 362.6875 M 187.324219 362.6875 L 187.246094 362.6875 L 187.324219 362.6875 M 187.816406 362.6875 L 187.867188 362.6875 L 187.816406 362.6875 M 187.210938 362.6875 L 187.132812 362.6875 L 187.210938 362.6875 M 187.953125 362.6875 L 188.003906 362.6875 L 187.953125 362.6875 M 187.109375 362.6875 L 187.007812 362.6875 L 187.109375 362.6875 M 188.128906 362.6875 L 188.15625 362.6875 L 188.128906 362.6875 M 186.984375 362.6875 L 186.90625 362.6875 L 186.984375 362.6875 M 186.871094 362.6875 L 186.804688 362.6875 L 186.871094 362.6875 M 188.257812 362.6875 L 188.292969 362.6875 L 188.257812 362.6875 M 186.769531 362.6875 L 186.691406 362.6875 L 186.769531 362.6875 M 188.382812 362.6875 L 188.433594 362.6875 L 188.382812 362.6875 M 186.667969 362.6875 L 186.566406 362.6875 L 186.667969 362.6875 M 188.535156 362.6875 L 188.558594 362.6875 L 188.535156 362.6875 M 186.542969 362.6875 L 186.464844 362.6875 L 186.542969 362.6875 M 188.6875 362.6875 L 188.722656 362.6875 L 188.6875 362.6875 M 186.429688 362.6875 L 186.351562 362.6875 L 186.429688 362.6875 M 186.3125 362.6875 L 186.25 362.6875 L 186.3125 362.6875 M 188.8125 362.6875 L 188.863281 362.6875 L 188.8125 362.6875 M 186.214844 362.6875 L 186.113281 362.6875 L 186.214844 362.6875 M 188.949219 362.6875 L 188.988281 362.6875 L 188.949219 362.6875 M 186.113281 362.6875 L 186.011719 362.6875 L 186.113281 362.6875 M 189.101562 362.6875 L 189.128906 362.6875 L 189.101562 362.6875 M 185.972656 362.6875 L 185.910156 362.6875 L 185.972656 362.6875 M 189.253906 362.6875 L 189.292969 362.6875 L 189.253906 362.6875 M 185.871094 362.6875 L 185.796875 362.6875 L 185.871094 362.6875 M 185.773438 362.6875 C 185.734375 362.6875 185.707031 362.6875 185.683594 362.675781 C 185.707031 362.6875 185.734375 362.6875 185.773438 362.6875 M 189.378906 362.6875 L 189.429688 362.6875 L 189.378906 362.6875 M 185.660156 362.675781 L 185.570312 362.675781 L 185.660156 362.675781 M 189.503906 362.675781 L 189.554688 362.675781 L 189.503906 362.675781 M 185.53125 362.675781 L 185.457031 362.675781 L 185.53125 362.675781 M 189.667969 362.675781 L 189.707031 362.675781 L 189.667969 362.675781 M 185.429688 362.675781 L 185.355469 362.675781 L 185.429688 362.675781 M 185.316406 362.675781 L 185.242188 362.675781 L 185.316406 362.675781 M 189.808594 362.675781 L 189.859375 362.675781 L 189.808594 362.675781 M 185.21875 362.675781 L 185.117188 362.675781 L 185.21875 362.675781 M 189.933594 362.675781 L 189.996094 362.675781 L 189.933594 362.675781 M 185.089844 362.675781 L 185.003906 362.675781 L 185.089844 362.675781 M 190.074219 362.675781 L 190.125 362.675781 L 190.074219 362.675781 M 184.976562 362.675781 L 184.902344 362.675781 L 184.976562 362.675781 M 190.238281 362.675781 L 190.289062 362.675781 L 190.238281 362.675781 M 184.875 362.675781 L 184.789062 362.675781 L 184.875 362.675781 M 184.777344 362.675781 C 184.699219 362.675781 184.636719 362.664062 184.5625 362.664062 C 184.636719 362.664062 184.699219 362.675781 184.777344 362.675781 M 190.363281 362.675781 L 190.425781 362.675781 L 190.363281 362.675781 M 190.503906 362.664062 L 190.550781 362.664062 L 190.503906 362.664062 M 184.535156 362.664062 L 184.460938 362.664062 L 184.535156 362.664062 M 190.628906 362.664062 L 190.679688 362.664062 L 190.628906 362.664062 M 184.433594 362.664062 L 184.347656 362.664062 L 184.433594 362.664062 M 184.335938 362.664062 L 184.121094 362.664062 L 184.335938 362.664062 M 190.804688 362.664062 L 190.855469 362.664062 L 190.804688 362.664062 M 190.929688 362.664062 L 190.992188 362.664062 L 190.929688 362.664062 M 184.09375 362.664062 C 184.070312 362.652344 184.042969 362.652344 184.007812 362.652344 C 184.03125 362.652344 184.070312 362.652344 184.09375 362.664062 M 191.058594 362.652344 L 191.121094 362.652344 L 191.058594 362.652344 M 183.980469 362.652344 L 183.90625 362.652344 L 183.980469 362.652344 M 191.183594 362.652344 L 191.296875 362.652344 L 191.183594 362.652344 M 183.878906 362.652344 L 183.664062 362.652344 L 183.878906 362.652344 M 191.359375 362.652344 L 191.421875 362.652344 L 191.359375 362.652344 M 183.652344 362.652344 L 183.566406 362.652344 L 183.652344 362.652344 M 191.484375 362.652344 L 191.5625 362.652344 L 191.484375 362.652344 M 183.539062 362.652344 L 183.449219 362.652344 L 183.539062 362.652344 M 191.597656 362.652344 L 191.6875 362.652344 L 191.597656 362.652344 M 183.4375 362.652344 C 183.335938 362.640625 183.222656 362.640625 183.109375 362.640625 C 183.222656 362.640625 183.324219 362.640625 183.4375 362.652344 M 191.699219 362.652344 C 191.761719 362.640625 191.828125 362.640625 191.878906 362.640625 C 191.8125 362.640625 191.761719 362.640625 191.699219 362.652344 M 191.914062 362.640625 L 191.992188 362.640625 L 191.914062 362.640625 M 183.097656 362.640625 L 182.996094 362.640625 L 183.097656 362.640625 M 192.027344 362.640625 L 192.117188 362.640625 L 192.027344 362.640625 M 182.996094 362.640625 C 182.882812 362.625 182.769531 362.625 182.667969 362.625 C 182.769531 362.625 182.882812 362.625 182.996094 362.640625 M 192.140625 362.640625 C 192.253906 362.625 192.34375 362.625 192.445312 362.625 C 192.34375 362.625 192.253906 362.625 192.140625 362.640625 M 182.65625 362.625 L 182.554688 362.625 L 182.65625 362.625 M 192.46875 362.625 L 192.558594 362.625 L 192.46875 362.625 M 182.554688 362.625 C 182.402344 362.613281 182.253906 362.613281 182.113281 362.613281 C 182.253906 362.613281 182.402344 362.613281 182.554688 362.625 M 192.582031 362.625 L 192.683594 362.625 L 192.582031 362.625 M 192.683594 362.625 C 192.796875 362.613281 192.898438 362.613281 193 362.613281 C 192.898438 362.613281 192.796875 362.613281 192.683594 362.625 M 182.113281 362.613281 C 122.589844 360.785156 70.535156 329.261719 40.289062 282.355469 C 40.292969 282.355469 40.296875 282.367188 40.304688 282.367188 C 70.558594 329.277344 122.589844 360.785156 182.117188 362.613281 M 193.027344 362.613281 L 193.128906 362.613281 L 193.027344 362.613281 M 193.140625 362.613281 C 193.28125 362.601562 193.429688 362.601562 193.570312 362.589844 C 193.429688 362.601562 193.28125 362.601562 193.140625 362.613281 M 193.570312 362.589844 C 267.207031 360.101562 329.304688 312.160156 352.714844 245.9375 L 301.566406 245.9375 L 352.714844 245.9375 C 359.058594 228 362.566406 208.726562 362.691406 188.648438 C 362.125 282.859375 287.148438 359.433594 193.570312 362.589844 M 362.691406 188.636719 L 362.691406 188.523438 L 362.691406 188.636719 M 362.691406 188.507812 L 362.691406 188.207031 L 362.691406 188.507812 M 362.691406 188.15625 L 362.691406 188.09375 L 362.691406 188.15625 M 362.691406 188.015625 L 362.691406 187.953125 L 362.691406 188.015625 M 362.703125 187.878906 L 362.703125 187.828125 L 362.703125 187.878906 M 362.703125 187.738281 L 362.703125 187.6875 L 362.703125 187.738281 M 362.703125 187.5625 L 362.703125 187.460938 L 362.703125 187.5625 M 362.703125 187.4375 L 362.703125 187.324219 L 362.703125 187.4375 M 362.703125 187.3125 L 362.703125 187.210938 L 362.703125 187.3125 M 362.703125 187.195312 C 362.691406 187.160156 362.691406 187.121094 362.691406 187.082031 C 362.691406 187.121094 362.691406 187.160156 362.703125 187.195312 M 362.691406 187.070312 C 362.640625 166.777344 359.121094 147.300781 352.714844 129.1875 C 342.523438 100.328125 324.964844 74.9375 302.3125 55.257812 L 302.296875 55.246094 C 339.179688 87.261719 362.554688 134.433594 362.691406 187.070312 " fill-opacity="1" fill-rule="nonzero"/><path fill="#1c377e" d="M 352.710938 245.9375 L 301.5625 245.9375 C 319.625 218.390625 330.144531 185.429688 330.144531 150.039062 C 330.144531 142.972656 329.71875 136.023438 328.910156 129.1875 L 352.710938 129.1875 C 359.121094 147.300781 362.640625 166.777344 362.6875 187.070312 L 362.6875 187.082031 C 362.6875 187.121094 362.6875 187.160156 362.703125 187.199219 L 362.703125 187.878906 C 362.703125 187.902344 362.703125 187.929688 362.6875 187.953125 L 362.6875 188.648438 C 362.5625 208.730469 359.054688 228.003906 352.710938 245.9375 " fill-opacity="1" fill-rule="nonzero"/><path fill="#b0c0c8" d="M 352.710938 129.1875 L 328.910156 129.1875 C 325.707031 102.183594 316.359375 77.070312 302.308594 55.261719 C 324.960938 74.9375 342.519531 100.328125 352.710938 129.1875 " fill-opacity="1" fill-rule="nonzero"/><path fill="#a92425" d="M 187.5625 362.6875 L 185.773438 362.6875 C 185.734375 362.6875 185.707031 362.6875 185.683594 362.675781 L 184.777344 362.675781 C 184.699219 362.675781 184.636719 362.664062 184.5625 362.664062 L 184.09375 362.664062 C 184.070312 362.652344 184.03125 362.652344 184.007812 362.652344 L 183.4375 362.652344 C 183.324219 362.640625 183.222656 362.640625 183.109375 362.640625 L 182.996094 362.640625 C 182.882812 362.625 182.769531 362.625 182.667969 362.625 L 182.554688 362.625 C 182.402344 362.613281 182.253906 362.613281 182.113281 362.613281 C 122.589844 360.785156 70.558594 329.277344 40.300781 282.367188 C 71.027344 309.03125 111.136719 325.164062 155.007812 325.164062 C 216.335938 325.164062 270.28125 293.65625 301.5625 245.9375 L 352.710938 245.9375 C 329.300781 312.160156 267.203125 360.101562 193.566406 362.589844 C 193.429688 362.601562 193.277344 362.601562 193.136719 362.613281 L 193 362.613281 C 192.898438 362.613281 192.796875 362.613281 192.683594 362.625 L 192.445312 362.625 C 192.34375 362.625 192.253906 362.625 192.140625 362.640625 L 191.875 362.640625 C 191.828125 362.640625 191.761719 362.640625 191.699219 362.652344 L 191.058594 362.652344 C 191.03125 362.664062 191.019531 362.664062 190.992188 362.664062 L 190.5 362.664062 C 190.476562 362.675781 190.453125 362.675781 190.425781 362.675781 L 189.503906 362.675781 C 189.480469 362.675781 189.453125 362.675781 189.429688 362.6875 L 187.5625 362.6875 " fill-opacity="1" fill-rule="nonzero"/><path fill="#5c69bb" d="M 19.835938 212.082031 C 19.683594 212.082031 19.535156 212.019531 19.386719 211.871094 C 16.164062 208.652344 14.714844 170.132812 29.164062 129.1875 L 52.019531 129.1875 C 28.886719 171.152344 23.457031 212.082031 19.835938 212.082031 " fill-opacity="1" fill-rule="nonzero"/><path fill="#ffffff" d="M 52.019531 129.1875 L 29.164062 129.1875 C 36.636719 108.007812 48.359375 86.175781 66.308594 68.238281 C 106.144531 28.386719 165.210938 19.179688 193.65625 19.179688 C 202.773438 19.179688 208.753906 20.125 209.941406 21.316406 C 214.820312 26.199219 136.617188 33.316406 84.007812 85.9375 C 70.648438 99.292969 60.21875 114.304688 52.019531 129.1875 " fill-opacity="1" fill-rule="nonzero"/></svg>