<svg xmlns="http://www.w3.org/2000/svg" xmlns:xlink="http://www.w3.org/1999/xlink" width="500" zoomAndPan="magnify" viewBox="0 0 375 374.999991" height="500" preserveAspectRatio="xMidYMid meet" version="1.0"><defs><clipPath id="220949adc3"><path d="M 127 7.894531 L 248 7.894531 L 248 367.144531 L 127 367.144531 Z M 127 7.894531 " clip-rule="nonzero"/></clipPath><clipPath id="3be7162695"><path d="M 247 18 L 367.144531 18 L 367.144531 357 L 247 357 Z M 247 18 " clip-rule="nonzero"/></clipPath><clipPath id="c94694cb85"><path d="M 7.894531 18 L 128 18 L 128 357 L 7.894531 357 Z M 7.894531 18 " clip-rule="nonzero"/></clipPath></defs><rect x="-37.5" width="450" fill="#ffffff" y="-37.499999" height="449.999989" fill-opacity="1"/><rect x="-37.5" width="450" fill="#ffffff" y="-37.499999" height="449.999989" fill-opacity="1"/><path fill="#353434" d="M 375.074219 187.5625 C 375.074219 291.121094 291.121094 375.074219 187.5625 375.074219 C 84.007812 375.074219 0.0507812 291.121094 0.0507812 187.5625 C 0.0585938 84.007812 84.007812 0.0507812 187.5625 0.0507812 C 291.121094 0.0585938 375.074219 84.007812 375.074219 187.5625 " fill-opacity="1" fill-rule="nonzero"/><path fill="#ed2023" d="M 212.199219 112.878906 L 209.824219 112.296875 L 199.621094 125.882812 L 198.675781 110.847656 L 184.171875 106.785156 L 199.582031 99.648438 L 199.507812 97.199219 L 199.105469 84.925781 L 208.449219 96.46875 L 222.414062 91.636719 L 214.769531 104.289062 L 224.117188 115.828125 L 212.199219 112.878906 M 216.8125 181.15625 L 206.8125 174.042969 L 204.820312 172.617188 L 190.351562 181.507812 L 194.980469 167.179688 L 182.984375 158.074219 L 199.9375 157.101562 L 200.769531 154.78125 L 204.894531 143.226562 L 209.347656 157.390625 L 224.117188 158.023438 L 212.359375 166.992188 L 216.8125 181.15625 M 180.046875 228.507812 L 171.039062 220.167969 L 169.234375 218.503906 L 153.746094 225.480469 L 160.179688 211.855469 L 149.445312 201.285156 L 166.386719 202.484375 L 167.507812 200.300781 L 173.082031 189.367188 L 175.679688 203.984375 L 190.25 206.496094 L 177.445312 213.886719 L 180.046875 228.507812 M 114.605469 183.1875 L 83.476562 161.101562 L 52.359375 183.1875 L 62.867188 141.449219 L 57.910156 137.703125 L 33.117188 118.921875 L 70.738281 118.921875 L 83.476562 83.714844 L 96.214844 118.921875 L 133.84375 118.921875 L 109.054688 137.703125 L 104.097656 141.449219 L 114.605469 183.1875 M 164.378906 50.628906 L 163.496094 38.390625 L 173.296875 49.546875 L 187.058594 44.164062 L 179.917969 57.113281 L 189.707031 68.265625 L 177.6875 65.804688 L 175.289062 65.3125 L 165.640625 79.289062 L 164.101562 64.304688 L 149.445312 60.824219 L 164.554688 53.078125 L 164.378906 50.628906 M 187.613281 12.433594 L 187.511719 12.433594 C 90.804688 12.457031 12.4375 90.855469 12.4375 187.558594 C 12.433594 284.269531 90.804688 362.660156 187.511719 362.6875 L 187.613281 362.6875 C 284.308594 362.660156 362.703125 284.269531 362.703125 187.558594 C 362.703125 90.851562 284.308594 12.460938 187.613281 12.433594 " fill-opacity="1" fill-rule="nonzero"/><path fill="#ddb417" d="M 133.84375 118.921875 L 96.214844 118.921875 L 83.476562 83.714844 L 70.738281 118.921875 L 33.117188 118.921875 L 57.910156 137.703125 L 62.867188 141.449219 L 52.359375 183.1875 L 83.476562 161.101562 L 114.605469 183.1875 L 104.097656 141.449219 L 109.054688 137.703125 L 133.84375 118.921875 " fill-opacity="1" fill-rule="nonzero"/><path fill="#ddb417" d="M 164.101562 64.304688 L 165.640625 79.289062 L 175.289062 65.3125 L 177.6875 65.804688 L 189.707031 68.265625 L 179.917969 57.113281 L 187.058594 44.164062 L 173.296875 49.546875 L 163.496094 38.390625 L 164.378906 50.628906 L 164.554688 53.078125 L 149.445312 60.824219 L 164.101562 64.304688 " fill-opacity="1" fill-rule="nonzero"/><path fill="#ddb417" d="M 222.414062 91.636719 L 208.449219 96.46875 L 199.105469 84.925781 L 199.507812 97.199219 L 199.582031 99.648438 L 184.171875 106.785156 L 198.675781 110.847656 L 199.621094 125.882812 L 209.824219 112.296875 L 212.199219 112.878906 L 224.117188 115.828125 L 214.769531 104.289062 L 222.414062 91.636719 " fill-opacity="1" fill-rule="nonzero"/><path fill="#ddb417" d="M 209.347656 157.390625 L 204.894531 143.226562 L 200.769531 154.78125 L 199.9375 157.101562 L 182.984375 158.074219 L 194.980469 167.179688 L 190.351562 181.507812 L 204.816406 172.617188 L 206.8125 174.042969 L 216.8125 181.15625 L 212.359375 166.992188 L 224.117188 158.023438 L 209.347656 157.390625 " fill-opacity="1" fill-rule="nonzero"/><path fill="#ddb417" d="M 175.679688 203.984375 L 173.082031 189.367188 L 167.507812 200.300781 L 166.386719 202.484375 L 149.445312 201.285156 L 160.179688 211.855469 L 153.746094 225.480469 L 169.234375 218.503906 L 171.039062 220.167969 L 180.046875 228.507812 L 177.445312 213.886719 L 190.25 206.496094 L 175.679688 203.984375 " fill-opacity="1" fill-rule="nonzero"/><path fill="#a91a1d" d="M 187.5625 362.6875 C 125.769531 362.6875 71.457031 330.6875 40.289062 282.355469 C 71.015625 309.019531 111.125 325.164062 155.007812 325.164062 C 251.726562 325.164062 330.144531 246.757812 330.144531 150.039062 C 330.144531 115.109375 319.917969 82.566406 302.296875 55.246094 C 339.292969 87.359375 362.6875 134.726562 362.6875 187.5625 C 362.6875 284.285156 284.285156 362.6875 187.5625 362.6875 " fill-opacity="1" fill-rule="nonzero"/><path fill="#f25a47" d="M 19.835938 212.082031 C 19.683594 212.082031 19.535156 212.007812 19.386719 211.871094 C 14.5 206.988281 13.6875 120.851562 66.308594 68.238281 C 106.144531 28.386719 165.210938 19.179688 193.65625 19.179688 C 202.773438 19.179688 208.753906 20.125 209.941406 21.3125 C 214.820312 26.191406 136.832031 33.289062 84.207031 85.722656 L 83.476562 83.714844 L 81.898438 88.066406 C 72.539062 97.765625 64.667969 108.273438 58.035156 118.921875 L 33.117188 118.921875 L 50.453125 132.050781 C 28.640625 172.996094 23.371094 212.082031 19.835938 212.082031 " fill-opacity="1" fill-rule="nonzero"/><path fill="#e6c754" d="M 50.453125 132.050781 L 33.117188 118.921875 L 58.035156 118.921875 C 55.308594 123.296875 52.789062 127.6875 50.453125 132.050781 M 81.898438 88.066406 L 83.476562 83.714844 L 84.207031 85.722656 C 84.144531 85.796875 84.070312 85.859375 84.007812 85.9375 C 83.300781 86.640625 82.59375 87.347656 81.898438 88.066406 " fill-opacity="1" fill-rule="nonzero"/><g clip-path="url(#220949adc3)"><path fill="#ededed" d="M 247.410156 18.113281 L 247.410156 356.925781 C 228.691406 363.558594 208.546875 367.144531 187.519531 367.144531 C 166.492188 367.144531 146.347656 363.558594 127.628906 356.925781 L 127.628906 18.113281 C 146.398438 11.480469 166.539062 7.894531 187.519531 7.894531 C 208.5 7.894531 228.691406 11.480469 247.410156 18.113281 Z M 247.410156 18.113281 " fill-opacity="1" fill-rule="nonzero"/></g><g clip-path="url(#3be7162695)"><path fill="#f4263f" d="M 367.144531 187.519531 C 367.144531 199.800781 365.917969 211.839844 363.558594 223.433594 C 361.886719 231.640625 359.675781 239.648438 356.925781 247.363281 C 338.894531 298.410156 298.457031 338.84375 247.410156 356.875 L 247.410156 18.113281 C 298.457031 36.144531 338.894531 76.628906 356.925781 127.628906 C 359.675781 135.390625 361.886719 143.398438 363.558594 151.554688 C 365.917969 163.199219 367.144531 175.238281 367.144531 187.519531 Z M 367.144531 187.519531 " fill-opacity="1" fill-rule="nonzero"/></g><g clip-path="url(#c94694cb85)"><path fill="#001aa0" d="M 127.628906 18.113281 L 127.628906 356.925781 C 76.628906 338.894531 36.144531 298.457031 18.113281 247.410156 C 15.363281 239.648438 13.152344 231.640625 11.480469 223.484375 C 9.121094 211.839844 7.894531 199.851562 7.894531 187.519531 C 7.894531 175.238281 9.121094 163.199219 11.480469 151.605469 C 13.152344 143.398438 15.363281 135.390625 18.113281 127.675781 C 36.144531 76.628906 76.628906 36.144531 127.628906 18.113281 Z M 127.628906 18.113281 " fill-opacity="1" fill-rule="nonzero"/></g></svg>