<svg xmlns="http://www.w3.org/2000/svg" xmlns:xlink="http://www.w3.org/1999/xlink" width="500" zoomAndPan="magnify" viewBox="0 0 375 374.999991" height="500" preserveAspectRatio="xMidYMid meet" version="1.0"><defs><clipPath id="0cd5157bf2"><path d="M 2.820312 2.820312 L 374.820312 2.820312 L 374.820312 374.820312 L 2.820312 374.820312 Z M 2.820312 2.820312 " clip-rule="nonzero"/></clipPath></defs><rect x="-37.5" width="450" fill="#ffffff" y="-37.499999" height="449.999989" fill-opacity="1"/><rect x="-37.5" width="450" fill="#ffffff" y="-37.499999" height="449.999989" fill-opacity="1"/><g clip-path="url(#0cd5157bf2)"><path fill="#353434" d="M 374.894531 188.882812 C 374.894531 291.609375 291.609375 374.894531 188.882812 374.894531 C 86.152344 374.894531 2.871094 291.609375 2.871094 188.882812 C 2.875 86.152344 86.152344 2.871094 188.882812 2.871094 C 291.609375 2.871094 374.894531 86.152344 374.894531 188.882812 " fill-opacity="1" fill-rule="nonzero"/></g><path fill="#d12331" d="M 188.933594 15.15625 L 188.832031 15.15625 C 92.898438 15.179688 15.15625 92.949219 15.15625 188.878906 C 15.15625 284.8125 92.898438 362.578125 188.832031 362.605469 L 188.933594 362.605469 C 284.855469 362.578125 362.621094 284.8125 362.621094 188.878906 C 362.621094 92.945312 284.855469 15.179688 188.933594 15.15625 " fill-opacity="1" fill-rule="nonzero"/><path fill="#ffffff" d="M 120.414062 242.625 C 102.183594 231.664062 89.980469 211.707031 89.980469 188.882812 C 89.980469 166.058594 102.183594 146.101562 120.414062 135.140625 C 129.835938 129.484375 140.847656 126.21875 152.632812 126.21875 C 170.414062 126.21875 186.441406 133.640625 197.855469 145.539062 C 184.566406 127.59375 163.242188 115.957031 139.207031 115.957031 C 132.699219 115.957031 126.40625 116.820312 120.414062 118.421875 C 89.257812 126.707031 66.285156 155.109375 66.285156 188.882812 C 66.285156 222.652344 89.257812 251.058594 120.414062 259.339844 C 126.40625 260.941406 132.699219 261.804688 139.207031 261.804688 C 163.242188 261.804688 184.566406 250.167969 197.855469 232.238281 C 186.441406 244.125 170.414062 251.53125 152.632812 251.53125 C 140.847656 251.53125 129.835938 248.28125 120.414062 242.625 " fill-opacity="1" fill-rule="nonzero"/><path fill="#ffffff" d="M 241.871094 183.839844 L 243.949219 180.597656 L 254.324219 164.445312 L 232.511719 172.453125 L 217.625 154.746094 L 217.734375 177.882812 L 195.925781 185.890625 L 214.296875 191.496094 L 217.972656 192.625 L 220.765625 219.050781 L 234.113281 199.617188 L 256.863281 205.785156 L 241.871094 183.839844 " fill-opacity="1" fill-rule="nonzero"/><path fill="#282b2c" d="M 188.808594 362.605469 L 188.71875 362.605469 L 188.808594 362.605469 M 189.007812 362.605469 L 189.03125 362.605469 L 189.007812 362.605469 M 188.667969 362.605469 L 188.582031 362.605469 L 188.667969 362.605469 M 189.132812 362.605469 L 189.167969 362.605469 L 189.132812 362.605469 M 188.53125 362.605469 L 188.417969 362.605469 L 188.53125 362.605469 M 189.28125 362.605469 L 189.320312 362.605469 L 189.28125 362.605469 M 188.394531 362.605469 L 188.28125 362.605469 L 188.394531 362.605469 M 189.421875 362.605469 L 189.457031 362.605469 L 189.421875 362.605469 M 188.269531 362.605469 L 188.132812 362.605469 L 188.269531 362.605469 M 189.558594 362.605469 L 189.59375 362.605469 L 189.558594 362.605469 M 188.132812 362.605469 C 175.632812 362.558594 163.457031 361.179688 151.71875 358.628906 C 163.457031 361.179688 175.632812 362.558594 188.132812 362.605469 M 189.695312 362.605469 L 189.734375 362.605469 L 189.695312 362.605469 M 189.832031 362.605469 L 189.871094 362.605469 L 189.832031 362.605469 M 189.984375 362.605469 L 190.019531 362.605469 L 189.984375 362.605469 M 190.121094 362.605469 L 190.160156 362.605469 L 190.121094 362.605469 M 190.257812 362.605469 L 190.296875 362.605469 L 190.257812 362.605469 M 190.394531 362.605469 L 190.433594 362.605469 L 190.394531 362.605469 M 190.535156 362.605469 L 190.582031 362.605469 L 190.535156 362.605469 M 190.671875 362.605469 L 190.722656 362.605469 L 190.671875 362.605469 M 190.808594 362.59375 L 190.859375 362.59375 L 190.808594 362.59375 M 190.960938 362.59375 L 191.007812 362.59375 L 190.960938 362.59375 M 191.097656 362.59375 L 191.148438 362.59375 L 191.097656 362.59375 M 191.234375 362.59375 L 191.285156 362.59375 L 191.234375 362.59375 M 191.371094 362.59375 L 191.421875 362.59375 L 191.371094 362.59375 M 191.507812 362.59375 L 191.558594 362.59375 L 191.507812 362.59375 M 191.648438 362.59375 L 191.710938 362.59375 L 191.648438 362.59375 M 191.796875 362.582031 L 191.847656 362.582031 L 191.796875 362.582031 M 191.933594 362.582031 L 191.984375 362.582031 L 191.933594 362.582031 M 192.074219 362.582031 L 192.121094 362.582031 L 192.074219 362.582031 M 192.210938 362.582031 L 192.261719 362.582031 L 192.210938 362.582031 M 192.347656 362.570312 L 192.398438 362.570312 L 192.347656 362.570312 M 192.484375 362.570312 L 192.546875 362.570312 L 192.484375 362.570312 M 192.625 362.570312 L 192.6875 362.570312 L 192.625 362.570312 M 192.773438 362.570312 L 192.824219 362.570312 L 192.773438 362.570312 M 192.910156 362.570312 L 192.960938 362.570312 L 192.910156 362.570312 M 193.046875 362.558594 L 193.113281 362.558594 L 193.046875 362.558594 M 193.1875 362.558594 L 193.25 362.558594 L 193.1875 362.558594 M 193.324219 362.558594 L 193.386719 362.558594 L 193.324219 362.558594 M 193.472656 362.542969 L 193.523438 362.542969 L 193.472656 362.542969 M 193.613281 362.542969 L 193.660156 362.542969 L 193.613281 362.542969 M 193.75 362.542969 L 193.8125 362.542969 L 193.75 362.542969 M 193.886719 362.542969 L 193.9375 362.542969 L 193.886719 362.542969 M 194.023438 362.53125 L 194.085938 362.53125 L 194.023438 362.53125 M 194.164062 362.53125 L 194.226562 362.53125 L 194.164062 362.53125 M 194.300781 362.53125 L 194.363281 362.53125 L 194.300781 362.53125 M 194.4375 362.53125 C 194.449219 362.519531 194.488281 362.519531 194.5 362.519531 C 194.488281 362.519531 194.449219 362.519531 194.4375 362.53125 M 194.585938 362.519531 L 194.636719 362.519531 L 194.585938 362.519531 M 194.726562 362.519531 C 194.738281 362.519531 194.761719 362.507812 194.789062 362.507812 C 194.761719 362.507812 194.738281 362.519531 194.726562 362.519531 M 194.863281 362.507812 L 194.925781 362.507812 L 194.863281 362.507812 M 195 362.507812 L 195.0625 362.507812 L 195 362.507812 M 195.136719 362.507812 C 195.152344 362.507812 195.1875 362.507812 195.199219 362.496094 C 195.1875 362.507812 195.152344 362.507812 195.136719 362.507812 M 195.277344 362.496094 L 195.339844 362.496094 L 195.277344 362.496094 M 195.414062 362.496094 C 195.4375 362.496094 195.464844 362.496094 195.476562 362.480469 C 195.464844 362.496094 195.4375 362.496094 195.414062 362.496094 M 195.550781 362.480469 L 195.613281 362.480469 L 195.550781 362.480469 M 195.703125 362.480469 L 195.75 362.480469 L 195.703125 362.480469 M 195.839844 362.480469 C 195.851562 362.480469 195.875 362.46875 195.902344 362.46875 C 195.875 362.46875 195.851562 362.480469 195.839844 362.480469 M 195.976562 362.46875 L 196.039062 362.46875 L 195.976562 362.46875 M 196.113281 362.457031 L 196.175781 362.457031 L 196.113281 362.457031 M 196.253906 362.457031 L 196.316406 362.457031 L 196.253906 362.457031 M 196.390625 362.457031 C 196.414062 362.457031 196.425781 362.457031 196.453125 362.445312 C 196.441406 362.445312 196.402344 362.457031 196.390625 362.457031 M 196.527344 362.445312 L 196.589844 362.445312 L 196.527344 362.445312 M 196.664062 362.433594 L 196.738281 362.433594 L 196.664062 362.433594 M 196.800781 362.433594 L 196.863281 362.433594 L 196.800781 362.433594 M 196.941406 362.433594 C 196.964844 362.433594 196.992188 362.417969 197.003906 362.417969 C 196.992188 362.417969 196.964844 362.433594 196.941406 362.433594 M 197.089844 362.417969 L 197.152344 362.417969 L 197.089844 362.417969 M 197.226562 362.417969 L 197.289062 362.417969 L 197.226562 362.417969 M 197.367188 362.40625 L 197.429688 362.40625 L 197.367188 362.40625 M 197.503906 362.394531 L 197.566406 362.394531 L 197.503906 362.394531 M 197.640625 362.394531 L 197.703125 362.394531 L 197.640625 362.394531 M 197.777344 362.394531 C 197.804688 362.394531 197.828125 362.382812 197.839844 362.382812 C 197.828125 362.382812 197.804688 362.394531 197.777344 362.394531 M 197.917969 362.382812 L 197.980469 362.382812 L 197.917969 362.382812 M 198.066406 362.371094 L 198.117188 362.371094 L 198.066406 362.371094 M 198.203125 362.371094 L 198.253906 362.371094 L 198.203125 362.371094 M 198.339844 362.355469 L 198.390625 362.355469 L 198.339844 362.355469 M 198.480469 362.34375 L 198.53125 362.34375 L 198.480469 362.34375 M 198.617188 362.34375 L 198.679688 362.34375 L 198.617188 362.34375 M 198.753906 362.332031 L 198.816406 362.332031 L 198.753906 362.332031 M 198.890625 362.332031 C 198.90625 362.320312 198.929688 362.320312 198.941406 362.320312 C 198.929688 362.320312 198.90625 362.320312 198.890625 362.332031 M 199.03125 362.320312 L 199.09375 362.320312 L 199.03125 362.320312 M 199.167969 362.304688 L 199.230469 362.304688 L 199.167969 362.304688 M 199.304688 362.304688 L 199.367188 362.304688 L 199.304688 362.304688 M 199.457031 362.292969 L 199.503906 362.292969 L 199.457031 362.292969 M 199.59375 362.28125 L 199.644531 362.28125 L 199.59375 362.28125 M 199.730469 362.28125 L 199.78125 362.28125 L 199.730469 362.28125 M 199.867188 362.269531 L 199.917969 362.269531 L 199.867188 362.269531 M 200.003906 362.257812 L 200.054688 362.257812 L 200.003906 362.257812 M 200.144531 362.257812 C 200.15625 362.257812 200.167969 362.257812 200.195312 362.242188 C 200.167969 362.257812 200.15625 362.257812 200.144531 362.257812 M 200.28125 362.242188 L 200.332031 362.242188 L 200.28125 362.242188 M 200.417969 362.230469 L 200.46875 362.230469 L 200.417969 362.230469 M 200.554688 362.230469 C 200.570312 362.21875 200.59375 362.21875 200.605469 362.21875 C 200.59375 362.21875 200.582031 362.21875 200.554688 362.230469 M 200.707031 362.21875 C 200.707031 362.207031 200.730469 362.207031 200.742188 362.207031 C 200.730469 362.207031 200.71875 362.207031 200.707031 362.21875 M 200.84375 362.207031 L 200.882812 362.207031 L 200.84375 362.207031 M 200.980469 362.195312 L 201.019531 362.195312 L 200.980469 362.195312 M 201.121094 362.195312 C 201.132812 362.195312 201.144531 362.179688 201.15625 362.179688 C 201.144531 362.179688 201.132812 362.179688 201.121094 362.195312 M 201.257812 362.179688 C 201.269531 362.179688 201.28125 362.167969 201.292969 362.167969 C 201.28125 362.167969 201.269531 362.179688 201.257812 362.179688 M 201.394531 362.167969 L 201.433594 362.167969 L 201.394531 362.167969 M 201.53125 362.15625 L 201.570312 362.15625 L 201.53125 362.15625 M 201.671875 362.144531 L 201.707031 362.144531 L 201.671875 362.144531 M 201.808594 362.144531 C 201.820312 362.132812 201.832031 362.132812 201.84375 362.132812 C 201.832031 362.132812 201.820312 362.132812 201.808594 362.144531 M 201.945312 362.117188 L 201.984375 362.117188 L 201.945312 362.117188 M 202.082031 362.117188 L 202.121094 362.117188 L 202.082031 362.117188 M 202.234375 362.105469 L 202.257812 362.105469 L 202.234375 362.105469 M 202.371094 362.09375 L 202.394531 362.09375 L 202.371094 362.09375 M 202.507812 362.082031 L 202.535156 362.082031 L 202.507812 362.082031 M 202.644531 362.082031 C 202.660156 362.070312 202.660156 362.070312 202.671875 362.070312 C 202.660156 362.070312 202.644531 362.082031 202.644531 362.082031 M 202.785156 362.054688 L 202.808594 362.054688 L 202.785156 362.054688 M 202.921875 362.054688 L 202.945312 362.054688 L 202.921875 362.054688 M 203.058594 362.042969 C 203.070312 362.042969 203.070312 362.042969 203.082031 362.03125 C 203.082031 362.042969 203.058594 362.042969 203.058594 362.042969 M 203.195312 362.03125 L 203.222656 362.03125 L 203.195312 362.03125 M 203.335938 362.019531 L 203.359375 362.019531 L 203.335938 362.019531 M 203.484375 362.007812 L 203.496094 362.007812 L 203.484375 362.007812 M 203.609375 361.992188 L 203.632812 361.992188 L 203.609375 361.992188 M 203.746094 361.980469 L 203.773438 361.980469 L 203.746094 361.980469 M 203.882812 361.96875 L 203.910156 361.96875 L 203.882812 361.96875 M 151.707031 358.628906 C 151.667969 358.613281 151.632812 358.601562 151.59375 358.601562 C 151.632812 358.601562 151.667969 358.613281 151.707031 358.628906 M 151.582031 358.589844 C 151.53125 358.589844 151.507812 358.578125 151.46875 358.566406 C 151.507812 358.578125 151.53125 358.589844 151.582031 358.589844 M 151.433594 358.566406 C 151.394531 358.550781 151.371094 358.550781 151.34375 358.550781 C 151.371094 358.550781 151.394531 358.550781 151.433594 358.566406 M 151.308594 358.539062 C 151.269531 358.527344 151.246094 358.527344 151.207031 358.515625 C 151.246094 358.527344 151.269531 358.527344 151.308594 358.539062 M 151.15625 358.503906 C 151.144531 358.503906 151.117188 358.488281 151.105469 358.488281 C 151.117188 358.488281 151.144531 358.503906 151.15625 358.503906 M 150.992188 358.464844 L 150.96875 358.464844 L 150.992188 358.464844 " fill-opacity="1" fill-rule="nonzero"/><path fill="#961d27" d="M 188.882812 362.605469 L 188.132812 362.605469 C 175.632812 362.558594 163.457031 361.179688 151.71875 358.628906 L 151.707031 358.628906 C 151.667969 358.617188 151.632812 358.601562 151.59375 358.601562 L 151.582031 358.589844 C 151.53125 358.589844 151.507812 358.578125 151.46875 358.566406 L 151.433594 358.566406 C 151.394531 358.554688 151.371094 358.554688 151.34375 358.554688 C 151.332031 358.539062 151.320312 358.539062 151.308594 358.539062 C 151.269531 358.527344 151.246094 358.527344 151.207031 358.515625 C 151.195312 358.515625 151.179688 358.503906 151.15625 358.503906 C 151.144531 358.503906 151.117188 358.492188 151.105469 358.492188 C 151.070312 358.476562 151.03125 358.476562 150.992188 358.464844 L 150.96875 358.464844 C 105.722656 348.394531 67.132812 320.675781 42.78125 282.914062 C 73.265625 309.367188 113.054688 325.382812 156.585938 325.382812 C 252.535156 325.382812 330.324219 247.605469 330.324219 151.65625 C 330.324219 116.996094 320.175781 84.726562 302.695312 57.625 C 339.394531 89.46875 362.605469 136.464844 362.605469 188.882812 C 362.605469 279.398438 293.386719 353.75 205 361.882812 L 204.859375 361.882812 C 204.8125 361.894531 204.773438 361.894531 204.722656 361.90625 L 204.585938 361.90625 C 204.535156 361.917969 204.496094 361.917969 204.449219 361.917969 C 204.398438 361.929688 204.359375 361.929688 204.308594 361.929688 C 204.261719 361.945312 204.222656 361.945312 204.171875 361.945312 C 204.121094 361.945312 204.085938 361.957031 204.035156 361.957031 C 203.984375 361.96875 203.949219 361.96875 203.910156 361.96875 L 203.886719 361.96875 C 203.847656 361.96875 203.808594 361.980469 203.773438 361.980469 L 203.746094 361.980469 C 203.710938 361.996094 203.671875 361.996094 203.632812 361.996094 L 203.609375 361.996094 C 203.570312 361.996094 203.535156 362.007812 203.496094 362.007812 L 203.484375 362.007812 C 203.433594 362.007812 203.398438 362.007812 203.359375 362.019531 L 203.335938 362.019531 C 203.296875 362.019531 203.257812 362.03125 203.222656 362.03125 L 203.085938 362.03125 C 203.070312 362.042969 203.070312 362.042969 203.058594 362.042969 C 203.019531 362.042969 202.984375 362.042969 202.945312 362.058594 L 202.785156 362.058594 C 202.746094 362.070312 202.707031 362.070312 202.671875 362.070312 C 202.660156 362.070312 202.660156 362.070312 202.644531 362.082031 L 202.507812 362.082031 C 202.472656 362.082031 202.433594 362.09375 202.394531 362.09375 L 202.371094 362.09375 C 202.332031 362.09375 202.296875 362.105469 202.257812 362.105469 L 202.234375 362.105469 C 202.195312 362.105469 202.15625 362.105469 202.121094 362.121094 L 201.945312 362.121094 C 201.921875 362.132812 201.882812 362.132812 201.84375 362.132812 C 201.832031 362.132812 201.820312 362.132812 201.808594 362.144531 L 201.671875 362.144531 C 201.632812 362.144531 201.609375 362.15625 201.570312 362.15625 L 201.53125 362.15625 C 201.496094 362.15625 201.46875 362.167969 201.433594 362.167969 L 201.292969 362.167969 C 201.28125 362.167969 201.269531 362.183594 201.257812 362.183594 L 201.15625 362.183594 C 201.144531 362.183594 201.132812 362.195312 201.121094 362.195312 L 200.980469 362.195312 C 200.945312 362.195312 200.90625 362.207031 200.882812 362.207031 L 200.742188 362.207031 C 200.730469 362.207031 200.707031 362.207031 200.707031 362.21875 L 200.605469 362.21875 C 200.59375 362.21875 200.570312 362.21875 200.554688 362.230469 L 200.417969 362.230469 C 200.394531 362.230469 200.355469 362.230469 200.332031 362.246094 L 200.195312 362.246094 C 200.167969 362.257812 200.15625 362.257812 200.144531 362.257812 L 200.007812 362.257812 C 199.96875 362.257812 199.941406 362.257812 199.917969 362.269531 L 199.867188 362.269531 C 199.84375 362.269531 199.804688 362.269531 199.78125 362.28125 L 199.59375 362.28125 C 199.554688 362.28125 199.53125 362.292969 199.503906 362.292969 L 199.457031 362.292969 C 199.417969 362.292969 199.394531 362.292969 199.367188 362.308594 L 199.167969 362.308594 C 199.140625 362.320312 199.117188 362.320312 199.09375 362.320312 L 198.941406 362.320312 C 198.929688 362.320312 198.90625 362.320312 198.890625 362.332031 L 198.753906 362.332031 C 198.71875 362.332031 198.703125 362.34375 198.679688 362.34375 L 198.480469 362.34375 C 198.453125 362.34375 198.429688 362.355469 198.390625 362.355469 L 198.339844 362.355469 C 198.304688 362.355469 198.277344 362.355469 198.253906 362.371094 L 198.066406 362.371094 C 198.027344 362.371094 198.003906 362.371094 197.980469 362.382812 L 197.839844 362.382812 C 197.828125 362.382812 197.804688 362.394531 197.777344 362.394531 L 197.503906 362.394531 C 197.476562 362.40625 197.453125 362.40625 197.429688 362.40625 L 197.367188 362.40625 C 197.339844 362.40625 197.316406 362.40625 197.289062 362.421875 L 197.003906 362.421875 C 196.992188 362.421875 196.964844 362.433594 196.941406 362.433594 L 196.664062 362.433594 C 196.640625 362.445312 196.628906 362.445312 196.589844 362.445312 L 196.453125 362.445312 C 196.425781 362.457031 196.414062 362.457031 196.390625 362.457031 L 196.113281 362.457031 C 196.089844 362.457031 196.0625 362.46875 196.039062 362.46875 L 195.902344 362.46875 C 195.875 362.46875 195.851562 362.484375 195.839844 362.484375 L 195.476562 362.484375 C 195.464844 362.496094 195.4375 362.496094 195.414062 362.496094 L 195.199219 362.496094 C 195.1875 362.507812 195.152344 362.507812 195.136719 362.507812 L 194.789062 362.507812 C 194.761719 362.507812 194.738281 362.519531 194.726562 362.519531 L 194.5 362.519531 C 194.488281 362.519531 194.449219 362.519531 194.4375 362.53125 L 194.023438 362.53125 C 194 362.53125 193.976562 362.546875 193.9375 362.546875 L 193.472656 362.546875 C 193.4375 362.558594 193.410156 362.558594 193.386719 362.558594 L 193.046875 362.558594 C 193.011719 362.570312 193 362.570312 192.960938 362.570312 L 192.347656 362.570312 C 192.324219 362.582031 192.296875 362.582031 192.261719 362.582031 L 191.796875 362.582031 C 191.761719 362.59375 191.734375 362.59375 191.710938 362.59375 L 190.808594 362.59375 C 190.785156 362.59375 190.746094 362.59375 190.722656 362.609375 L 188.882812 362.609375 " fill-opacity="1" fill-rule="nonzero"/><path fill="#dc5b54" d="M 22.496094 213.207031 C 22.34375 213.207031 22.199219 213.132812 22.050781 212.992188 C 17.203125 208.140625 16.394531 122.703125 68.597656 70.511719 C 108.113281 30.980469 166.710938 21.84375 194.925781 21.84375 C 203.972656 21.84375 209.902344 22.785156 211.078125 23.960938 C 215.921875 28.8125 138.34375 35.867188 86.152344 88.066406 C 35.519531 138.695312 27.359375 213.207031 22.496094 213.207031 " fill-opacity="1" fill-rule="nonzero"/></svg>