<svg xmlns="http://www.w3.org/2000/svg" xmlns:xlink="http://www.w3.org/1999/xlink" width="500" zoomAndPan="magnify" viewBox="0 0 375 374.999991" height="500" preserveAspectRatio="xMidYMid meet" version="1.0"><defs><clipPath id="4122512589"><path d="M 7.753906 7.753906 L 367.003906 7.753906 L 367.003906 367.003906 L 7.753906 367.003906 Z M 7.753906 7.753906 " clip-rule="nonzero"/></clipPath></defs><rect x="-37.5" width="450" fill="#ffffff" y="-37.499999" height="449.999989" fill-opacity="1"/><rect x="-37.5" width="450" fill="#ffffff" y="-37.499999" height="449.999989" fill-opacity="1"/><path fill="#353434" d="M 375.074219 187.5625 C 375.074219 291.121094 291.121094 375.074219 187.5625 375.074219 C 84.007812 375.074219 0.0507812 291.121094 0.0507812 187.5625 C 0.0585938 84.007812 84.007812 0.0507812 187.5625 0.0507812 C 291.121094 0.0507812 375.074219 84.007812 375.074219 187.5625 " fill-opacity="1" fill-rule="nonzero"/><path fill="#d12331" d="M 187.613281 12.433594 L 187.511719 12.433594 C 90.804688 12.457031 12.4375 90.855469 12.4375 187.558594 C 12.433594 284.269531 90.804688 362.660156 187.511719 362.6875 L 187.613281 362.6875 C 284.308594 362.660156 362.703125 284.269531 362.703125 187.558594 C 362.703125 90.851562 284.308594 12.460938 187.613281 12.433594 " fill-opacity="1" fill-rule="nonzero"/><path fill="#ffffff" d="M 118.542969 241.738281 C 100.164062 230.6875 87.867188 210.570312 87.867188 187.5625 C 87.867188 164.554688 100.164062 144.4375 118.542969 133.386719 C 128.039062 127.6875 139.140625 124.394531 151.023438 124.394531 C 168.945312 124.394531 185.101562 131.875 196.605469 143.871094 C 183.210938 125.78125 161.71875 114.050781 137.488281 114.050781 C 130.929688 114.050781 124.582031 114.921875 118.542969 116.535156 C 87.132812 124.886719 63.976562 153.519531 63.976562 187.5625 C 63.976562 221.605469 87.132812 250.238281 118.542969 258.589844 C 124.582031 260.203125 130.929688 261.074219 137.488281 261.074219 C 161.71875 261.074219 183.210938 249.34375 196.605469 231.269531 C 185.101562 243.25 168.945312 250.71875 151.023438 250.71875 C 139.140625 250.71875 128.039062 247.441406 118.542969 241.738281 " fill-opacity="1" fill-rule="nonzero"/><path fill="#ffffff" d="M 240.980469 182.480469 L 243.074219 179.214844 L 253.53125 162.929688 L 231.546875 171 L 216.535156 153.152344 L 216.648438 176.476562 L 194.664062 184.546875 L 213.179688 190.199219 L 216.890625 191.335938 L 219.703125 217.972656 L 233.160156 198.386719 L 256.09375 204.605469 L 240.980469 182.480469 " fill-opacity="1" fill-rule="nonzero"/><path fill="#282b2c" d="M 187.488281 362.6875 L 187.398438 362.6875 L 187.488281 362.6875 M 187.6875 362.6875 L 187.714844 362.6875 L 187.6875 362.6875 M 187.347656 362.6875 L 187.261719 362.6875 L 187.347656 362.6875 M 187.816406 362.6875 L 187.851562 362.6875 L 187.816406 362.6875 M 187.210938 362.6875 L 187.097656 362.6875 L 187.210938 362.6875 M 187.964844 362.6875 L 188.003906 362.6875 L 187.964844 362.6875 M 187.070312 362.6875 L 186.957031 362.6875 L 187.070312 362.6875 M 188.105469 362.6875 L 188.144531 362.6875 L 188.105469 362.6875 M 186.945312 362.6875 L 186.804688 362.6875 L 186.945312 362.6875 M 188.246094 362.6875 L 188.28125 362.6875 L 188.246094 362.6875 M 186.804688 362.6875 C 174.207031 362.640625 161.933594 361.25 150.101562 358.679688 C 161.933594 361.25 174.207031 362.640625 186.804688 362.6875 M 188.382812 362.6875 L 188.421875 362.6875 L 188.382812 362.6875 M 188.523438 362.6875 L 188.558594 362.6875 L 188.523438 362.6875 M 188.671875 362.6875 L 188.710938 362.6875 L 188.671875 362.6875 M 188.8125 362.6875 L 188.851562 362.6875 L 188.8125 362.6875 M 188.949219 362.6875 L 188.988281 362.6875 L 188.949219 362.6875 M 189.089844 362.6875 L 189.128906 362.6875 L 189.089844 362.6875 M 189.226562 362.6875 L 189.277344 362.6875 L 189.226562 362.6875 M 189.367188 362.6875 L 189.417969 362.6875 L 189.367188 362.6875 M 189.503906 362.675781 L 189.554688 362.675781 L 189.503906 362.675781 M 189.65625 362.675781 L 189.707031 362.675781 L 189.65625 362.675781 M 189.796875 362.675781 L 189.847656 362.675781 L 189.796875 362.675781 M 189.933594 362.675781 L 189.984375 362.675781 L 189.933594 362.675781 M 190.074219 362.675781 L 190.125 362.675781 L 190.074219 362.675781 M 190.210938 362.675781 L 190.261719 362.675781 L 190.210938 362.675781 M 190.351562 362.675781 L 190.414062 362.675781 L 190.351562 362.675781 M 190.503906 362.664062 L 190.550781 362.664062 L 190.503906 362.664062 M 190.640625 362.664062 L 190.691406 362.664062 L 190.640625 362.664062 M 190.78125 362.664062 L 190.828125 362.664062 L 190.78125 362.664062 M 190.917969 362.664062 L 190.96875 362.664062 L 190.917969 362.664062 M 191.058594 362.652344 L 191.109375 362.652344 L 191.058594 362.652344 M 191.195312 362.652344 L 191.257812 362.652344 L 191.195312 362.652344 M 191.335938 362.652344 L 191.398438 362.652344 L 191.335938 362.652344 M 191.484375 362.652344 L 191.535156 362.652344 L 191.484375 362.652344 M 191.625 362.652344 L 191.675781 362.652344 L 191.625 362.652344 M 191.761719 362.640625 L 191.828125 362.640625 L 191.761719 362.640625 M 191.902344 362.640625 L 191.964844 362.640625 L 191.902344 362.640625 M 192.039062 362.640625 L 192.105469 362.640625 L 192.039062 362.640625 M 192.191406 362.625 L 192.242188 362.625 L 192.191406 362.625 M 192.332031 362.625 L 192.382812 362.625 L 192.332031 362.625 M 192.46875 362.625 L 192.53125 362.625 L 192.46875 362.625 M 192.609375 362.625 L 192.660156 362.625 L 192.609375 362.625 M 192.746094 362.613281 L 192.808594 362.613281 L 192.746094 362.613281 M 192.886719 362.613281 L 192.949219 362.613281 L 192.886719 362.613281 M 193.023438 362.613281 L 193.085938 362.613281 L 193.023438 362.613281 M 193.164062 362.613281 C 193.175781 362.601562 193.214844 362.601562 193.226562 362.601562 C 193.214844 362.601562 193.175781 362.601562 193.164062 362.613281 M 193.316406 362.601562 L 193.367188 362.601562 L 193.316406 362.601562 M 193.453125 362.601562 C 193.464844 362.601562 193.492188 362.589844 193.515625 362.589844 C 193.492188 362.589844 193.464844 362.601562 193.453125 362.601562 M 193.59375 362.589844 L 193.65625 362.589844 L 193.59375 362.589844 M 193.730469 362.589844 L 193.792969 362.589844 L 193.730469 362.589844 M 193.871094 362.589844 C 193.882812 362.589844 193.921875 362.589844 193.933594 362.574219 C 193.921875 362.589844 193.882812 362.589844 193.871094 362.589844 M 194.007812 362.574219 L 194.070312 362.574219 L 194.007812 362.574219 M 194.148438 362.574219 C 194.171875 362.574219 194.199219 362.574219 194.210938 362.5625 C 194.199219 362.574219 194.171875 362.574219 194.148438 362.574219 M 194.285156 362.5625 L 194.347656 362.5625 L 194.285156 362.5625 M 194.4375 362.5625 L 194.488281 362.5625 L 194.4375 362.5625 M 194.578125 362.5625 C 194.589844 362.5625 194.613281 362.550781 194.640625 362.550781 C 194.613281 362.550781 194.589844 362.5625 194.578125 362.5625 M 194.714844 362.550781 L 194.777344 362.550781 L 194.714844 362.550781 M 194.855469 362.539062 L 194.917969 362.539062 L 194.855469 362.539062 M 194.992188 362.539062 L 195.054688 362.539062 L 194.992188 362.539062 M 195.132812 362.539062 C 195.15625 362.539062 195.167969 362.539062 195.195312 362.523438 C 195.179688 362.523438 195.144531 362.539062 195.132812 362.539062 M 195.269531 362.523438 L 195.332031 362.523438 L 195.269531 362.523438 M 195.410156 362.511719 L 195.484375 362.511719 L 195.410156 362.511719 M 195.546875 362.511719 L 195.609375 362.511719 L 195.546875 362.511719 M 195.6875 362.511719 C 195.710938 362.511719 195.738281 362.5 195.75 362.5 C 195.738281 362.5 195.710938 362.511719 195.6875 362.511719 M 195.835938 362.5 L 195.902344 362.5 L 195.835938 362.5 M 195.976562 362.5 L 196.039062 362.5 L 195.976562 362.5 M 196.113281 362.488281 L 196.179688 362.488281 L 196.113281 362.488281 M 196.253906 362.472656 L 196.316406 362.472656 L 196.253906 362.472656 M 196.390625 362.472656 L 196.457031 362.472656 L 196.390625 362.472656 M 196.53125 362.472656 C 196.554688 362.472656 196.582031 362.460938 196.59375 362.460938 C 196.582031 362.460938 196.554688 362.472656 196.53125 362.472656 M 196.671875 362.460938 L 196.734375 362.460938 L 196.671875 362.460938 M 196.820312 362.449219 L 196.871094 362.449219 L 196.820312 362.449219 M 196.960938 362.449219 L 197.011719 362.449219 L 196.960938 362.449219 M 197.097656 362.4375 L 197.148438 362.4375 L 197.097656 362.4375 M 197.238281 362.425781 L 197.289062 362.425781 L 197.238281 362.425781 M 197.375 362.425781 L 197.4375 362.425781 L 197.375 362.425781 M 197.515625 362.410156 L 197.578125 362.410156 L 197.515625 362.410156 M 197.652344 362.410156 C 197.667969 362.398438 197.691406 362.398438 197.703125 362.398438 C 197.691406 362.398438 197.667969 362.398438 197.652344 362.410156 M 197.792969 362.398438 L 197.855469 362.398438 L 197.792969 362.398438 M 197.929688 362.386719 L 197.996094 362.386719 L 197.929688 362.386719 M 198.070312 362.386719 L 198.132812 362.386719 L 198.070312 362.386719 M 198.222656 362.375 L 198.273438 362.375 L 198.222656 362.375 M 198.359375 362.359375 L 198.410156 362.359375 L 198.359375 362.359375 M 198.5 362.359375 L 198.550781 362.359375 L 198.5 362.359375 M 198.636719 362.347656 L 198.6875 362.347656 L 198.636719 362.347656 M 198.777344 362.335938 L 198.828125 362.335938 L 198.777344 362.335938 M 198.914062 362.335938 C 198.929688 362.335938 198.941406 362.335938 198.964844 362.324219 C 198.941406 362.335938 198.929688 362.335938 198.914062 362.335938 M 199.054688 362.324219 L 199.105469 362.324219 L 199.054688 362.324219 M 199.191406 362.308594 L 199.242188 362.308594 L 199.191406 362.308594 M 199.332031 362.308594 C 199.34375 362.296875 199.371094 362.296875 199.382812 362.296875 C 199.371094 362.296875 199.355469 362.296875 199.332031 362.308594 M 199.484375 362.296875 C 199.484375 362.285156 199.507812 362.285156 199.519531 362.285156 C 199.507812 362.285156 199.496094 362.285156 199.484375 362.296875 M 199.621094 362.285156 L 199.660156 362.285156 L 199.621094 362.285156 M 199.761719 362.273438 L 199.796875 362.273438 L 199.761719 362.273438 M 199.898438 362.273438 C 199.910156 362.273438 199.925781 362.261719 199.9375 362.261719 C 199.925781 362.261719 199.910156 362.261719 199.898438 362.273438 M 200.039062 362.261719 C 200.050781 362.261719 200.0625 362.246094 200.074219 362.246094 C 200.0625 362.246094 200.050781 362.261719 200.039062 362.261719 M 200.175781 362.246094 L 200.214844 362.246094 L 200.175781 362.246094 M 200.316406 362.234375 L 200.351562 362.234375 L 200.316406 362.234375 M 200.453125 362.222656 L 200.492188 362.222656 L 200.453125 362.222656 M 200.59375 362.222656 C 200.605469 362.210938 200.617188 362.210938 200.628906 362.210938 C 200.617188 362.210938 200.605469 362.210938 200.59375 362.222656 M 200.730469 362.195312 L 200.769531 362.195312 L 200.730469 362.195312 M 200.871094 362.195312 L 200.90625 362.195312 L 200.871094 362.195312 M 201.023438 362.183594 L 201.046875 362.183594 L 201.023438 362.183594 M 201.160156 362.171875 L 201.1875 362.171875 L 201.160156 362.171875 M 201.300781 362.160156 L 201.324219 362.160156 L 201.300781 362.160156 M 201.4375 362.160156 C 201.449219 362.144531 201.449219 362.144531 201.464844 362.144531 C 201.449219 362.144531 201.4375 362.160156 201.4375 362.160156 M 201.578125 362.132812 L 201.601562 362.132812 L 201.578125 362.132812 M 201.714844 362.132812 L 201.742188 362.132812 L 201.714844 362.132812 M 201.855469 362.121094 C 201.867188 362.121094 201.867188 362.121094 201.878906 362.109375 C 201.878906 362.121094 201.855469 362.121094 201.855469 362.121094 M 201.992188 362.109375 L 202.019531 362.109375 L 201.992188 362.109375 M 202.132812 362.097656 L 202.15625 362.097656 L 202.132812 362.097656 M 202.28125 362.082031 L 202.296875 362.082031 L 202.28125 362.082031 M 202.410156 362.070312 L 202.433594 362.070312 L 202.410156 362.070312 M 202.546875 362.058594 L 202.574219 362.058594 L 202.546875 362.058594 M 202.6875 362.046875 L 202.710938 362.046875 L 202.6875 362.046875 M 150.089844 358.675781 C 150.050781 358.664062 150.011719 358.652344 149.976562 358.652344 C 150.011719 358.652344 150.050781 358.664062 150.089844 358.675781 M 149.960938 358.640625 C 149.910156 358.640625 149.886719 358.628906 149.847656 358.613281 C 149.886719 358.628906 149.910156 358.640625 149.960938 358.640625 M 149.8125 358.613281 C 149.773438 358.601562 149.746094 358.601562 149.722656 358.601562 C 149.746094 358.601562 149.773438 358.601562 149.8125 358.613281 M 149.683594 358.589844 C 149.648438 358.578125 149.621094 358.578125 149.582031 358.5625 C 149.621094 358.578125 149.648438 358.578125 149.683594 358.589844 M 149.535156 358.550781 C 149.519531 358.550781 149.496094 358.539062 149.484375 358.539062 C 149.496094 358.539062 149.519531 358.550781 149.535156 358.550781 M 149.371094 358.511719 L 149.34375 358.511719 L 149.371094 358.511719 " fill-opacity="1" fill-rule="nonzero"/><path fill="#961d27" d="M 187.5625 362.6875 L 186.804688 362.6875 C 174.207031 362.640625 161.933594 361.25 150.101562 358.679688 L 150.089844 358.679688 C 150.050781 358.664062 150.011719 358.652344 149.976562 358.652344 L 149.960938 358.640625 C 149.910156 358.640625 149.886719 358.628906 149.847656 358.613281 L 149.8125 358.613281 C 149.773438 358.601562 149.746094 358.601562 149.722656 358.601562 C 149.710938 358.589844 149.699219 358.589844 149.683594 358.589844 C 149.648438 358.578125 149.621094 358.578125 149.582031 358.566406 C 149.570312 358.566406 149.558594 358.550781 149.535156 358.550781 C 149.519531 358.550781 149.496094 358.539062 149.484375 358.539062 C 149.445312 358.527344 149.40625 358.527344 149.371094 358.515625 L 149.34375 358.515625 C 103.734375 348.359375 64.832031 320.421875 40.28125 282.355469 C 71.015625 309.019531 111.125 325.164062 155.007812 325.164062 C 251.726562 325.164062 330.144531 246.757812 330.144531 150.039062 C 330.144531 115.097656 319.917969 82.566406 302.296875 55.246094 C 339.292969 87.347656 362.6875 134.726562 362.6875 187.5625 C 362.6875 278.808594 292.910156 353.757812 203.808594 361.957031 L 203.671875 361.957031 C 203.621094 361.96875 203.582031 361.96875 203.53125 361.984375 L 203.394531 361.984375 C 203.34375 361.996094 203.304688 361.996094 203.253906 361.996094 C 203.203125 362.007812 203.167969 362.007812 203.117188 362.007812 C 203.066406 362.019531 203.027344 362.019531 202.976562 362.019531 C 202.925781 362.019531 202.886719 362.035156 202.839844 362.035156 C 202.789062 362.046875 202.75 362.046875 202.710938 362.046875 L 202.6875 362.046875 C 202.648438 362.046875 202.609375 362.058594 202.574219 362.058594 L 202.546875 362.058594 C 202.511719 362.070312 202.472656 362.070312 202.433594 362.070312 L 202.410156 362.070312 C 202.371094 362.070312 202.332031 362.082031 202.296875 362.082031 L 202.28125 362.082031 C 202.234375 362.082031 202.195312 362.082031 202.15625 362.097656 L 202.132812 362.097656 C 202.09375 362.097656 202.054688 362.109375 202.019531 362.109375 L 201.878906 362.109375 C 201.867188 362.121094 201.867188 362.121094 201.855469 362.121094 C 201.816406 362.121094 201.777344 362.121094 201.742188 362.132812 L 201.578125 362.132812 C 201.539062 362.148438 201.5 362.148438 201.464844 362.148438 C 201.449219 362.148438 201.449219 362.148438 201.4375 362.160156 L 201.300781 362.160156 C 201.261719 362.160156 201.222656 362.171875 201.1875 362.171875 L 201.160156 362.171875 C 201.121094 362.171875 201.085938 362.183594 201.046875 362.183594 L 201.023438 362.183594 C 200.984375 362.183594 200.945312 362.183594 200.910156 362.199219 L 200.730469 362.199219 C 200.707031 362.210938 200.667969 362.210938 200.628906 362.210938 C 200.617188 362.210938 200.605469 362.210938 200.59375 362.222656 L 200.453125 362.222656 C 200.417969 362.222656 200.390625 362.234375 200.351562 362.234375 L 200.316406 362.234375 C 200.277344 362.234375 200.253906 362.246094 200.214844 362.246094 L 200.074219 362.246094 C 200.0625 362.246094 200.050781 362.261719 200.039062 362.261719 L 199.9375 362.261719 C 199.925781 362.261719 199.910156 362.273438 199.898438 362.273438 L 199.761719 362.273438 C 199.722656 362.273438 199.683594 362.285156 199.660156 362.285156 L 199.519531 362.285156 C 199.507812 362.285156 199.484375 362.285156 199.484375 362.296875 L 199.382812 362.296875 C 199.371094 362.296875 199.34375 362.296875 199.332031 362.3125 L 199.191406 362.3125 C 199.167969 362.3125 199.128906 362.3125 199.105469 362.324219 L 198.964844 362.324219 C 198.941406 362.335938 198.929688 362.335938 198.914062 362.335938 L 198.777344 362.335938 C 198.738281 362.335938 198.714844 362.335938 198.6875 362.347656 L 198.636719 362.347656 C 198.613281 362.347656 198.574219 362.347656 198.550781 362.363281 L 198.359375 362.363281 C 198.324219 362.363281 198.296875 362.375 198.273438 362.375 L 198.222656 362.375 C 198.183594 362.375 198.160156 362.375 198.132812 362.386719 L 197.929688 362.386719 C 197.90625 362.398438 197.882812 362.398438 197.855469 362.398438 L 197.703125 362.398438 C 197.691406 362.398438 197.667969 362.398438 197.652344 362.410156 L 197.515625 362.410156 C 197.476562 362.410156 197.464844 362.425781 197.441406 362.425781 L 197.238281 362.425781 C 197.210938 362.425781 197.1875 362.4375 197.148438 362.4375 L 197.097656 362.4375 C 197.0625 362.4375 197.035156 362.4375 197.011719 362.449219 L 196.820312 362.449219 C 196.785156 362.449219 196.757812 362.449219 196.734375 362.460938 L 196.59375 362.460938 C 196.582031 362.460938 196.554688 362.476562 196.53125 362.476562 L 196.253906 362.476562 C 196.230469 362.488281 196.203125 362.488281 196.179688 362.488281 L 196.113281 362.488281 C 196.089844 362.488281 196.066406 362.488281 196.039062 362.5 L 195.75 362.5 C 195.738281 362.5 195.710938 362.511719 195.6875 362.511719 L 195.410156 362.511719 C 195.382812 362.527344 195.371094 362.527344 195.332031 362.527344 L 195.195312 362.527344 C 195.167969 362.539062 195.15625 362.539062 195.132812 362.539062 L 194.855469 362.539062 C 194.828125 362.539062 194.804688 362.550781 194.777344 362.550781 L 194.640625 362.550781 C 194.613281 362.550781 194.589844 362.5625 194.578125 362.5625 L 194.210938 362.5625 C 194.199219 362.578125 194.171875 362.578125 194.148438 362.578125 L 193.933594 362.578125 C 193.921875 362.589844 193.882812 362.589844 193.871094 362.589844 L 193.515625 362.589844 C 193.492188 362.589844 193.464844 362.601562 193.453125 362.601562 L 193.226562 362.601562 C 193.214844 362.601562 193.175781 362.601562 193.164062 362.613281 L 192.746094 362.613281 C 192.722656 362.613281 192.695312 362.625 192.660156 362.625 L 192.191406 362.625 C 192.15625 362.640625 192.128906 362.640625 192.105469 362.640625 L 191.761719 362.640625 C 191.726562 362.652344 191.710938 362.652344 191.675781 362.652344 L 191.058594 362.652344 C 191.03125 362.664062 191.007812 362.664062 190.96875 362.664062 L 190.503906 362.664062 C 190.464844 362.675781 190.4375 362.675781 190.414062 362.675781 L 189.503906 362.675781 C 189.480469 362.675781 189.441406 362.675781 189.417969 362.691406 L 187.5625 362.691406 " fill-opacity="1" fill-rule="nonzero"/><path fill="#dc5b54" d="M 19.835938 212.082031 C 19.683594 212.082031 19.535156 212.007812 19.386719 211.871094 C 14.5 206.976562 13.6875 120.851562 66.308594 68.238281 C 106.144531 28.386719 165.210938 19.179688 193.65625 19.179688 C 202.773438 19.179688 208.753906 20.125 209.941406 21.3125 C 214.820312 26.199219 136.617188 33.316406 84.007812 85.9375 C 32.964844 136.96875 24.738281 212.082031 19.835938 212.082031 " fill-opacity="1" fill-rule="nonzero"/><g clip-path="url(#4122512589)"><path fill="#006c35" d="M 367.003906 187.378906 C 367.003906 190.320312 366.929688 193.257812 366.789062 196.191406 C 366.644531 199.128906 366.425781 202.058594 366.140625 204.984375 C 365.851562 207.910156 365.492188 210.828125 365.058594 213.734375 C 364.628906 216.644531 364.125 219.539062 363.550781 222.421875 C 362.980469 225.304688 362.335938 228.171875 361.621094 231.023438 C 360.90625 233.875 360.121094 236.707031 359.269531 239.519531 C 358.414062 242.335938 357.492188 245.125 356.503906 247.890625 C 355.511719 250.660156 354.457031 253.402344 353.332031 256.117188 C 352.207031 258.835938 351.015625 261.519531 349.757812 264.179688 C 348.5 266.835938 347.179688 269.460938 345.792969 272.054688 C 344.40625 274.644531 342.960938 277.203125 341.449219 279.722656 C 339.9375 282.246094 338.363281 284.730469 336.730469 287.171875 C 335.097656 289.617188 333.40625 292.019531 331.65625 294.382812 C 329.902344 296.742188 328.09375 299.058594 326.230469 301.332031 C 324.367188 303.605469 322.445312 305.828125 320.472656 308.007812 C 318.496094 310.1875 316.472656 312.3125 314.394531 314.394531 C 312.3125 316.472656 310.1875 318.496094 308.007812 320.472656 C 305.828125 322.445312 303.605469 324.367188 301.332031 326.230469 C 299.058594 328.09375 296.742188 329.902344 294.382812 331.65625 C 292.019531 333.40625 289.617188 335.097656 287.171875 336.730469 C 284.730469 338.363281 282.246094 339.9375 279.722656 341.449219 C 277.203125 342.960938 274.644531 344.40625 272.054688 345.792969 C 269.460938 347.179688 266.835938 348.5 264.179688 349.757812 C 261.519531 351.015625 258.835938 352.207031 256.117188 353.332031 C 253.402344 354.457031 250.660156 355.511719 247.890625 356.503906 C 245.125 357.492188 242.335938 358.414062 239.519531 359.269531 C 236.707031 360.121094 233.875 360.90625 231.023438 361.621094 C 228.171875 362.335938 225.304688 362.980469 222.421875 363.550781 C 219.539062 364.125 216.644531 364.628906 213.734375 365.058594 C 210.828125 365.492188 207.910156 365.851562 204.984375 366.140625 C 202.058594 366.425781 199.128906 366.644531 196.191406 366.789062 C 193.257812 366.929688 190.320312 367.003906 187.378906 367.003906 C 184.4375 367.003906 181.5 366.929688 178.566406 366.789062 C 175.628906 366.644531 172.699219 366.425781 169.773438 366.140625 C 166.847656 365.851562 163.929688 365.492188 161.023438 365.058594 C 158.113281 364.628906 155.21875 364.125 152.335938 363.550781 C 149.453125 362.980469 146.585938 362.335938 143.734375 361.621094 C 140.882812 360.90625 138.050781 360.121094 135.238281 359.269531 C 132.421875 358.414062 129.632812 357.492188 126.863281 356.503906 C 124.097656 355.511719 121.355469 354.457031 118.640625 353.332031 C 115.921875 352.207031 113.238281 351.015625 110.578125 349.757812 C 107.921875 348.5 105.296875 347.179688 102.703125 345.792969 C 100.113281 344.40625 97.554688 342.960938 95.03125 341.449219 C 92.511719 339.9375 90.027344 338.363281 87.585938 336.730469 C 85.140625 335.097656 82.738281 333.40625 80.375 331.65625 C 78.015625 329.902344 75.699219 328.09375 73.425781 326.230469 C 71.152344 324.367188 68.929688 322.445312 66.75 320.472656 C 64.570312 318.496094 62.445312 316.472656 60.363281 314.394531 C 58.285156 312.3125 56.257812 310.1875 54.285156 308.007812 C 52.3125 305.828125 50.390625 303.605469 48.527344 301.332031 C 46.660156 299.058594 44.855469 296.742188 43.101562 294.382812 C 41.351562 292.019531 39.660156 289.617188 38.027344 287.171875 C 36.394531 284.730469 34.820312 282.246094 33.308594 279.722656 C 31.796875 277.203125 30.347656 274.644531 28.964844 272.054688 C 27.578125 269.460938 26.257812 266.835938 25 264.179688 C 23.742188 261.519531 22.550781 258.835938 21.425781 256.117188 C 20.300781 253.402344 19.246094 250.660156 18.253906 247.890625 C 17.261719 245.125 16.339844 242.335938 15.488281 239.519531 C 14.636719 236.707031 13.851562 233.875 13.136719 231.023438 C 12.421875 228.171875 11.777344 225.304688 11.207031 222.421875 C 10.632812 219.539062 10.128906 216.644531 9.699219 213.734375 C 9.265625 210.828125 8.90625 207.910156 8.617188 204.984375 C 8.332031 202.058594 8.113281 199.128906 7.96875 196.191406 C 7.824219 193.257812 7.753906 190.320312 7.753906 187.378906 C 7.753906 184.4375 7.824219 181.5 7.96875 178.566406 C 8.113281 175.628906 8.332031 172.699219 8.617188 169.773438 C 8.90625 166.847656 9.265625 163.929688 9.699219 161.023438 C 10.128906 158.113281 10.632812 155.21875 11.207031 152.335938 C 11.777344 149.453125 12.421875 146.585938 13.136719 143.734375 C 13.851562 140.882812 14.636719 138.050781 15.488281 135.238281 C 16.339844 132.421875 17.261719 129.632812 18.253906 126.863281 C 19.246094 124.097656 20.300781 121.355469 21.425781 118.640625 C 22.550781 115.921875 23.742188 113.238281 25 110.578125 C 26.257812 107.921875 27.578125 105.296875 28.964844 102.703125 C 30.347656 100.113281 31.796875 97.554688 33.308594 95.03125 C 34.820312 92.511719 36.394531 90.027344 38.027344 87.585938 C 39.660156 85.140625 41.351562 82.738281 43.101562 80.375 C 44.855469 78.015625 46.660156 75.699219 48.527344 73.425781 C 50.390625 71.152344 52.3125 68.929688 54.285156 66.75 C 56.257812 64.570312 58.285156 62.445312 60.363281 60.363281 C 62.445312 58.285156 64.570312 56.257812 66.75 54.285156 C 68.929688 52.3125 71.152344 50.390625 73.425781 48.527344 C 75.699219 46.660156 78.015625 44.855469 80.375 43.101562 C 82.738281 41.351562 85.140625 39.660156 87.585938 38.027344 C 90.027344 36.394531 92.511719 34.820312 95.03125 33.308594 C 97.554688 31.796875 100.113281 30.347656 102.703125 28.964844 C 105.296875 27.578125 107.921875 26.257812 110.578125 25 C 113.238281 23.742188 115.921875 22.550781 118.640625 21.425781 C 121.355469 20.300781 124.097656 19.246094 126.863281 18.253906 C 129.632812 17.261719 132.421875 16.339844 135.238281 15.488281 C 138.050781 14.636719 140.882812 13.851562 143.734375 13.136719 C 146.585938 12.421875 149.453125 11.777344 152.335938 11.207031 C 155.21875 10.632812 158.113281 10.128906 161.023438 9.699219 C 163.929688 9.265625 166.847656 8.90625 169.773438 8.617188 C 172.699219 8.332031 175.628906 8.113281 178.566406 7.96875 C 181.5 7.824219 184.4375 7.753906 187.378906 7.753906 C 190.320312 7.753906 193.257812 7.824219 196.191406 7.96875 C 199.128906 8.113281 202.058594 8.332031 204.984375 8.617188 C 207.910156 8.90625 210.828125 9.265625 213.734375 9.699219 C 216.644531 10.128906 219.539062 10.632812 222.421875 11.207031 C 225.304688 11.777344 228.171875 12.421875 231.023438 13.136719 C 233.875 13.851562 236.707031 14.636719 239.519531 15.488281 C 242.335938 16.339844 245.125 17.261719 247.890625 18.253906 C 250.660156 19.246094 253.402344 20.300781 256.117188 21.425781 C 258.835938 22.550781 261.519531 23.742188 264.179688 25 C 266.835938 26.257812 269.460938 27.578125 272.054688 28.964844 C 274.644531 30.347656 277.203125 31.796875 279.722656 33.308594 C 282.246094 34.820312 284.730469 36.394531 287.171875 38.027344 C 289.617188 39.660156 292.019531 41.351562 294.382812 43.101562 C 296.742188 44.855469 299.058594 46.660156 301.332031 48.527344 C 303.605469 50.390625 305.828125 52.3125 308.007812 54.285156 C 310.1875 56.257812 312.3125 58.285156 314.394531 60.363281 C 316.472656 62.445312 318.496094 64.570312 320.472656 66.75 C 322.445312 68.929688 324.367188 71.152344 326.230469 73.425781 C 328.09375 75.699219 329.902344 78.015625 331.65625 80.375 C 333.40625 82.738281 335.097656 85.140625 336.730469 87.585938 C 338.363281 90.027344 339.9375 92.511719 341.449219 95.03125 C 342.960938 97.554688 344.40625 100.113281 345.792969 102.703125 C 347.179688 105.296875 348.5 107.921875 349.757812 110.578125 C 351.015625 113.238281 352.207031 115.921875 353.332031 118.640625 C 354.457031 121.355469 355.511719 124.097656 356.503906 126.863281 C 357.492188 129.632812 358.414062 132.421875 359.269531 135.238281 C 360.121094 138.050781 360.90625 140.882812 361.621094 143.734375 C 362.335938 146.585938 362.980469 149.453125 363.550781 152.335938 C 364.125 155.21875 364.628906 158.113281 365.058594 161.023438 C 365.492188 163.929688 365.851562 166.847656 366.140625 169.773438 C 366.425781 172.699219 366.644531 175.628906 366.789062 178.566406 C 366.929688 181.5 367.003906 184.4375 367.003906 187.378906 Z M 367.003906 187.378906 " fill-opacity="1" fill-rule="nonzero"/></g><path fill="#ffffff" d="M 191.304688 170.015625 C 188.167969 169.65625 184.695312 169.558594 181.222656 168.960938 C 176.9375 168.148438 175.667969 165.367188 178.445312 161.894531 C 180.195312 159.691406 182.734375 158.183594 184.9375 156.578125 C 186.085938 155.765625 187.472656 155.429688 188.984375 154.832031 C 189.101562 153.777344 189.34375 152.746094 189.558594 151.691406 C 190.371094 148.21875 193.484375 145.5625 196.957031 145.324219 C 201.125 144.964844 204.359375 146.710938 205.867188 150.066406 C 208.070312 155.285156 205.054688 159.332031 199.378906 158.972656 C 196.71875 158.734375 193.941406 158.734375 191.28125 159.214844 C 188.144531 159.667969 185.367188 161.296875 182.707031 164.195312 C 184.21875 164.554688 185.246094 165.128906 186.300781 165.007812 C 192.3125 164.769531 198.347656 164.316406 204.261719 163.957031 C 205.773438 163.835938 207.160156 163.835938 209.003906 163.714844 C 208.765625 167.429688 207.617188 170.085938 205.53125 172.746094 C 198.132812 172.863281 191.066406 173.894531 185.605469 180.625 C 188.960938 180.984375 191.859375 181.199219 194.636719 181.4375 C 195.449219 185.964844 194.179688 187.691406 190.230469 187.355469 C 187.089844 186.996094 183.976562 186.421875 180.839844 185.726562 C 177.703125 185.03125 175.402344 183.066406 173.535156 180.503906 C 172.839844 179.570312 172.148438 178.542969 171.332031 177.273438 C 170.183594 178.207031 169.128906 179.234375 167.980469 179.929688 C 164.746094 182.132812 161.488281 184.335938 158.136719 186.421875 C 156.746094 187.234375 155.117188 187.570312 153.511719 187.929688 C 147.957031 188.863281 146.328125 187.929688 143.671875 182.707031 C 142.734375 182.949219 141.707031 183.285156 140.652344 183.402344 C 136.367188 184.21875 132.078125 185.152344 127.792969 185.726562 C 126.402344 185.964844 124.894531 185.367188 123.167969 185.152344 C 124.101562 182.707031 125.707031 182.828125 127.335938 182.707031 C 133.25 182.347656 138.6875 180.746094 143.789062 177.605469 C 145.296875 173.441406 145.296875 168.339844 149.464844 165.679688 C 149.824219 165.800781 150.039062 165.917969 150.398438 166.039062 C 149.707031 168.816406 149.011719 171.597656 148.078125 175.070312 C 152.484375 172.289062 156.292969 169.96875 157.679688 165.34375 C 159.070312 160.722656 156.050781 157.011719 154.449219 153.296875 C 156.195312 150.160156 157.464844 149.707031 159.667969 151.550781 C 161.632812 153.179688 163.261719 155.261719 165.34375 157.464844 C 163.835938 158.039062 163.023438 158.398438 162.113281 158.855469 C 164.890625 165.679688 161.753906 170.542969 156.675781 174.492188 C 153.898438 176.695312 151.117188 178.660156 147.980469 180.863281 C 148.554688 181.796875 149.128906 182.707031 149.945312 184.097656 C 158.640625 183.738281 163.957031 178.421875 169.175781 172.410156 C 168.9375 171.355469 168.816406 170.328125 168.601562 169.390625 C 167.332031 163.957031 166.0625 158.496094 164.890625 153.058594 C 164.195312 149.921875 164.890625 148.769531 168.027344 146.351562 C 168.386719 147.503906 168.839844 148.554688 169.082031 149.585938 C 170.589844 157.800781 172.21875 165.917969 175.691406 173.558594 C 176.503906 175.402344 177.894531 176.914062 179.164062 178.875 C 183.449219 175.785156 187.5 172.792969 191.304688 170.015625 Z M 201.964844 154.136719 C 202.417969 151.476562 202.324219 150.78125 200.816406 149.609375 C 199.546875 148.554688 198.277344 148.339844 196.886719 149.035156 C 195.042969 150.089844 193.988281 151.574219 194.347656 154.136719 C 196.984375 154.136719 199.425781 154.136719 201.964844 154.136719 Z M 201.964844 154.136719 " fill-opacity="1" fill-rule="nonzero"/><path fill="#ffffff" d="M 101.902344 220.5 C 104.558594 220.957031 106.761719 221.4375 108.847656 221.554688 C 118.929688 222.371094 128.894531 223.519531 138.953125 223.640625 C 176.003906 224 213.195312 224 250.246094 224.09375 C 251.300781 224.09375 252.332031 223.972656 253.265625 223.972656 C 254.414062 222.226562 252.570312 219.925781 254.894531 218.65625 C 257.335938 219.472656 256.976562 222.25 258.246094 224.214844 C 262.988281 224.214844 267.851562 224.332031 272.832031 224.214844 C 276.425781 224.09375 278.269531 224.789062 279.65625 228.046875 C 280.351562 229.792969 280.710938 231.878906 280.710938 233.722656 C 280.59375 237.890625 277.695312 239.160156 274.339844 236.859375 C 274.101562 236.621094 273.765625 236.5 273.070312 236.046875 C 271.109375 236.40625 268.785156 236.738281 265.765625 237.195312 C 264.136719 236.5 261.839844 234.992188 258.820312 236.261719 C 258.367188 236.957031 257.671875 237.769531 256.976562 238.703125 C 253.625 236.957031 254.65625 233.839844 254.320312 230.824219 C 253.167969 230.703125 251.996094 230.464844 250.847656 230.464844 C 214.945312 230.464844 179.042969 230.464844 143.144531 230.464844 C 133.417969 230.464844 123.695312 229.652344 114.1875 227.113281 C 108.511719 225.242188 105.039062 223.519531 101.902344 220.5 Z M 257.792969 231.277344 C 258.726562 234.058594 260.929688 234.417969 266.367188 232.90625 C 271.683594 234.65625 274.699219 234.296875 276.328125 231.972656 C 274.582031 230.703125 261.960938 230.226562 257.792969 231.277344 Z M 257.792969 231.277344 " fill-opacity="1" fill-rule="nonzero"/><path fill="#ffffff" d="M 143.476562 160.050781 C 137.46875 164.339844 135.144531 163.882812 131.3125 157.035156 C 130.855469 158.542969 130.378906 159.574219 130.257812 160.625 C 130.019531 162.589844 130.257812 164.554688 130.019531 166.542969 C 129.203125 173.367188 125.613281 178.589844 119.9375 182.300781 C 112.871094 186.828125 105.109375 189.246094 96.535156 188.3125 C 94.214844 188.074219 91.792969 187.378906 89.589844 186.347656 C 84.035156 183.691406 82.644531 178.46875 82.40625 172.914062 C 82.285156 168.867188 83.554688 164.914062 85.878906 161.441406 C 86.117188 161.082031 86.574219 160.746094 87.507812 160.746094 C 87.050781 162.375 86.574219 163.980469 86.117188 165.609375 C 85.0625 169.199219 85.183594 172.792969 86.8125 176.144531 C 89.472656 182.0625 94.332031 184.71875 101.636719 184.027344 C 108.246094 183.332031 114.5 181.246094 119.695312 176.960938 C 124.558594 173.03125 125.828125 167.691406 126.066406 161.320312 C 124.675781 161.777344 123.742188 162.253906 122.832031 162.589844 C 122.472656 163.40625 122.140625 164.097656 121.898438 164.914062 C 118.761719 175.691406 112.175781 179.5 102.210938 180.195312 C 92.488281 180.886719 87.84375 175.210938 89.925781 165.488281 C 90.621094 162.136719 92.011719 159.117188 95.722656 157.609375 C 96.296875 159.574219 95.148438 160.84375 94.789062 162.351562 C 94.214844 164.675781 93.636719 166.972656 93.636719 169.417969 C 93.757812 172.554688 96.082031 174.851562 99.074219 175.09375 C 104.390625 175.546875 109.277344 174.160156 113.539062 170.925781 C 115.984375 169.082031 116.679688 167.453125 117.015625 164.316406 C 115.625 164.195312 114.355469 164.074219 112.964844 163.859375 C 108.679688 163.285156 107.410156 160.507812 109.613281 156.792969 C 110.425781 155.40625 111.457031 154.015625 112.628906 152.867188 C 115.074219 150.425781 117.730469 150.542969 120.03125 153.105469 C 121.179688 154.375 121.996094 156.003906 123.167969 157.730469 C 123.863281 157.488281 124.796875 157.152344 125.707031 156.675781 C 125.46875 152.269531 125.253906 148.21875 124.894531 144.054688 C 124.320312 137.226562 123.742188 130.28125 123.144531 123.433594 C 123.023438 122.042969 123.265625 120.535156 123.601562 119.265625 C 123.960938 117.996094 124.652344 116.726562 126.378906 117.179688 C 129.035156 121.46875 132.75 130.617188 132.507812 132.460938 C 131.457031 132.007812 130.304688 131.527344 128.796875 130.832031 C 129.15625 138.351562 129.492188 145.539062 129.851562 153.179688 C 131.816406 152.027344 133.445312 151.214844 135.070312 150.160156 C 137.15625 152.699219 134.496094 156.410156 137.96875 158.253906 C 142.710938 158.613281 140.988281 153.273438 143.40625 151.429688 C 145.945312 152.820312 144.796875 157.226562 148.386719 157.679688 C 149.65625 155.597656 149.65625 155.597656 147.8125 152.003906 C 148.628906 151.070312 149.65625 150.039062 150.949219 148.652344 C 151.886719 149.800781 153.035156 150.617188 153.152344 151.429688 C 153.511719 154.78125 153.035156 158.039062 150.617188 160.578125 C 148.699219 162.375 146.855469 162.136719 143.476562 160.050781 Z M 112.796875 158.089844 C 115 159.355469 116.511719 159.476562 118.234375 158.664062 C 117.875 157.511719 117.421875 156.460938 116.964844 154.734375 C 115.457031 155.882812 114.425781 156.792969 112.796875 158.089844 Z M 112.796875 158.089844 " fill-opacity="1" fill-rule="nonzero"/><path fill="#ffffff" d="M 240.644531 170.828125 C 240.402344 171.882812 240.1875 172.792969 239.949219 173.847656 C 239.589844 175.8125 239.015625 177.679688 239.015625 179.644531 C 238.894531 182.300781 239.710938 183.234375 242.609375 183.929688 C 244.8125 182.996094 245.960938 181.03125 247.132812 179.066406 C 248.644531 176.410156 250.03125 173.632812 251.660156 171.070312 C 254.199219 166.902344 256.523438 166.542969 260.113281 169.679688 C 261.382812 170.734375 262.316406 172.121094 263.585938 173.152344 C 264.976562 174.300781 266.484375 175.234375 268.449219 176.625 C 269.265625 174.996094 270.199219 173.964844 270.414062 172.792969 C 270.867188 170.136719 271.226562 167.355469 271.226562 164.699219 C 271.226562 157.511719 270.988281 150.230469 270.867188 143.046875 C 270.867188 140.964844 269.933594 139.335938 268.425781 137.828125 C 264.59375 133.996094 260.785156 129.945312 257.074219 126.019531 C 254.175781 122.882812 254.175781 121.15625 257.191406 117.921875 C 259.394531 118.164062 263.203125 120.820312 267.277344 124.988281 C 266.582031 125.5625 265.886719 126.136719 264.953125 126.832031 C 266.582031 128.34375 268.1875 129.730469 269.933594 131.121094 C 269.574219 128.796875 269.359375 126.496094 268.878906 124.175781 C 268.1875 120.582031 268.761719 119.550781 272.710938 117.683594 C 274.558594 121.613281 275.945312 125.5625 276.640625 129.96875 C 275.824219 130.328125 275.25 130.546875 274.796875 130.785156 C 273.648438 136.699219 276.761719 140.507812 281.167969 143.980469 C 280.808594 141.203125 280.59375 138.304688 280.234375 135.527344 C 279.777344 131.695312 279.300781 127.886719 278.84375 124.175781 C 278.484375 121.15625 279.898438 118.953125 282.316406 116.773438 C 284.855469 121.0625 286.027344 125.46875 287.992188 130.210938 C 286.484375 129.851562 285.667969 129.636719 284.976562 129.394531 C 284.855469 129.636719 284.617188 129.851562 284.617188 130.089844 C 284.976562 136.460938 285.308594 142.710938 285.765625 149.082031 C 285.886719 150.925781 286.460938 152.914062 287.15625 154.757812 C 288.664062 158.925781 290.292969 163.09375 291.898438 167.378906 C 292.136719 167.835938 292.015625 168.433594 292.015625 169.007812 C 292.015625 169.128906 291.777344 169.367188 291.320312 169.824219 C 289.691406 166.925781 288.183594 164.148438 286.339844 160.675781 C 285.285156 166.230469 286.699219 171.453125 284.949219 176.433594 C 283.105469 175.5 283.324219 173.992188 283.203125 172.601562 C 282.964844 167.738281 282.628906 162.996094 282.628906 158.136719 C 282.628906 155.117188 281.476562 152.914062 279.609375 150.734375 C 278.554688 149.585938 277.644531 148.414062 276.019531 147.382812 C 275.898438 148.4375 275.777344 149.347656 275.777344 150.398438 C 275.898438 155.835938 276.351562 161.394531 276.136719 166.855469 C 276.019531 169.871094 275.441406 172.984375 274.390625 175.761719 C 272.425781 180.863281 267.5625 182.132812 263.15625 178.78125 C 261.886719 177.726562 260.714844 176.578125 259.5625 175.425781 C 258.628906 174.492188 257.816406 173.582031 256.425781 172.195312 C 255.371094 173.824219 254.582031 174.972656 253.886719 176.242188 C 251.925781 179.257812 250.175781 182.375 248.09375 185.390625 C 247.277344 186.539062 246.007812 187.472656 244.859375 188.050781 C 240.570312 190.253906 236.644531 187.929688 236.164062 183.1875 C 235.804688 179.257812 236.40625 175.546875 238.703125 172.195312 C 239.0625 171.621094 239.277344 171.042969 239.519531 170.445312 C 239.734375 170.351562 240.1875 170.589844 240.644531 170.828125 Z M 240.644531 170.828125 " fill-opacity="1" fill-rule="nonzero"/><path fill="#ffffff" d="M 117.207031 117.660156 C 119.289062 120.558594 120.101562 124.03125 121.828125 127.503906 C 120.320312 127.625 119.503906 127.742188 118.691406 127.742188 C 118.691406 128.199219 118.449219 128.558594 118.570312 128.796875 C 119.144531 131.238281 119.839844 133.660156 120.320312 136.101562 C 120.558594 137.371094 120.4375 138.761719 120.199219 140.03125 C 119.503906 144.890625 115.578125 147.09375 111.050781 145.132812 C 109.996094 144.675781 109.207031 144.078125 108.152344 143.621094 C 106.644531 144.675781 105.253906 145.707031 103.625 146.855469 C 102.570312 152.171875 103.984375 157.96875 101.542969 163.308594 C 99.699219 158.089844 101.183594 152.652344 100.03125 147.09375 C 97.253906 146.398438 93.902344 145.824219 92.96875 142.472656 C 92.152344 139.695312 92.035156 136.675781 91.578125 133.203125 C 90.882812 134.257812 90.308594 135.046875 89.949219 135.980469 C 88.5625 139.453125 87.292969 142.925781 85.78125 146.398438 C 85.207031 147.910156 84.632812 149.632812 82.644531 149.875 C 80.5625 150.113281 79.171875 148.722656 78.597656 147.214844 C 77.449219 144.4375 76.273438 141.539062 75.820312 138.519531 C 75.363281 135.382812 75.582031 132.148438 75.699219 129.011719 C 75.699219 127.625 75.9375 126.113281 77.902344 125.875 C 79.292969 126.929688 79.054688 128.316406 79.054688 129.707031 C 79.054688 132.941406 79.171875 136.316406 79.628906 139.429688 C 79.867188 141.273438 80.679688 143.261719 82.859375 144.652344 C 83.554688 143.144531 84.25 141.875 84.609375 140.484375 C 86.117188 135.503906 88.320312 130.878906 91.554688 126.808594 C 92.128906 126.113281 92.488281 125.300781 92.824219 124.84375 C 95.960938 125.660156 95.722656 127.742188 95.84375 129.585938 C 95.960938 132.367188 95.722656 135.023438 95.960938 137.800781 C 96.082031 139.191406 96.417969 140.582031 97.015625 141.851562 C 97.375 142.542969 98.285156 143 99.554688 144.054688 C 99.554688 141.96875 99.675781 140.699219 99.554688 139.429688 C 98.980469 134.808594 98.285156 130.164062 97.710938 125.421875 C 97.253906 121.492188 98.40625 119.410156 102.117188 117.207031 C 104.65625 119.527344 105.015625 120.917969 103.625 123.695312 C 103.171875 124.75 102.355469 125.898438 102.476562 127.046875 C 102.597656 132.03125 102.929688 137.011719 103.289062 142.328125 C 105.492188 141.273438 105.734375 139.886719 105.492188 138.042969 C 104.800781 133.996094 104.679688 130.042969 105.253906 125.996094 C 105.492188 124.484375 105.828125 122.976562 107.335938 122.164062 C 109.300781 122.976562 109.085938 124.605469 109.183594 126.089844 C 109.300781 129.445312 109.183594 132.917969 109.542969 136.292969 C 109.660156 137.921875 110.59375 139.527344 111.050781 140.914062 C 114.976562 141.492188 116.847656 139.863281 116.269531 136.292969 C 115.695312 133.058594 114.644531 129.921875 113.734375 126.785156 C 112.679688 123.910156 114.066406 119.742188 117.207031 117.660156 Z M 117.207031 117.660156 " fill-opacity="1" fill-rule="nonzero"/><path fill="#ffffff" d="M 179.738281 118.472656 C 182.179688 123.097656 182.757812 127.863281 183.089844 132.605469 C 183.210938 134.234375 183.546875 135.839844 184.027344 137.347656 C 184.601562 138.976562 185.773438 140.125 187.738281 140.003906 C 189.488281 139.429688 190.179688 138.042969 189.941406 136.414062 C 189.488281 133.875 188.886719 131.3125 188.191406 128.773438 C 187.953125 127.71875 187.378906 126.6875 187.042969 125.753906 C 185.414062 121.921875 185.65625 121.230469 189.488281 118.449219 C 191.449219 121.347656 193.535156 124.125 195.738281 127.359375 C 194.804688 127.597656 194.46875 127.597656 194.109375 127.71875 C 193.75 127.839844 193.535156 127.839844 193.054688 127.957031 C 193.054688 128.414062 193.054688 128.894531 193.175781 129.226562 C 194.226562 133.058594 195.136719 136.867188 193.871094 140.820312 C 192.601562 145.105469 187.859375 146.832031 184.144531 144.292969 C 183.210938 143.71875 182.515625 142.902344 181.488281 142.089844 C 178.949219 145.105469 176.050781 147.191406 171.882812 146.617188 C 167.597656 146.042969 165.632812 143.023438 163.882812 138.976562 C 163.308594 140.125 162.828125 140.941406 162.375 141.753906 C 160.867188 144.890625 158.78125 146.160156 156.003906 145.921875 C 153.105469 145.683594 150.207031 143.476562 149.875 140.363281 C 149.417969 135.839844 149.632812 131.214844 149.753906 126.6875 C 149.753906 125.0625 149.992188 123.457031 151.957031 121.707031 C 152.078125 123.457031 152.195312 124.367188 152.316406 125.421875 C 152.554688 129.253906 152.675781 133.058594 153.25 136.773438 C 153.488281 138.617188 154.640625 140.246094 155.214844 141.632812 C 157.65625 142.449219 159.046875 141.632812 159.621094 140.125 C 160.316406 138.28125 161.011719 136.199219 161.128906 134.210938 C 161.488281 130.738281 161.945312 127.503906 163.667969 124.484375 C 164.242188 123.550781 165.058594 122.859375 165.871094 122.042969 C 167.621094 123.550781 167.140625 125.179688 167.261719 126.664062 C 167.261719 130.019531 167.5 133.371094 167.835938 136.75 C 167.957031 137.5625 168.410156 138.378906 168.890625 139.191406 C 170.277344 141.515625 172.121094 142.542969 174.207031 141.96875 C 176.648438 141.394531 178.613281 139.429688 178.613281 136.867188 C 178.613281 134.902344 178.15625 132.941406 177.679688 131.074219 C 177.320312 129.5625 176.625 128.175781 176.289062 126.664062 C 175.09375 123.097656 176.027344 120.894531 179.738281 118.472656 Z M 179.738281 118.472656 " fill-opacity="1" fill-rule="nonzero"/><path fill="#ffffff" d="M 217.363281 153.320312 C 217.605469 161.65625 217.9375 169.871094 216.214844 178.324219 C 213.890625 177.511719 214.25 176.242188 214.25 175.09375 C 214.25 171.261719 214.488281 167.453125 214.371094 163.621094 C 214.011719 158.0625 213.554688 152.507812 212.863281 146.949219 C 212.742188 145.683594 212.167969 144.414062 211.472656 143.359375 C 206.851562 137.683594 202.203125 132.007812 197.460938 126.449219 C 195.019531 123.671875 194.5625 120.894531 196.886719 116.847656 C 200.121094 119.503906 203.378906 122.164062 206.96875 125.179688 C 205.699219 125.636719 205.007812 125.996094 203.953125 126.332031 C 206.15625 128.988281 208.359375 131.550781 210.441406 134.089844 C 210.5625 133.96875 210.800781 133.96875 210.898438 133.851562 C 210.203125 130.496094 209.507812 127.144531 208.8125 123.648438 C 208.121094 120.054688 209.75 117.636719 212.742188 115.3125 C 215.398438 119.839844 217.964844 124.222656 220.5 128.628906 C 218.296875 130.257812 217.148438 128.054688 215.066406 127.695312 C 215.183594 129.085938 215.183594 130.472656 215.304688 131.742188 C 215.664062 134.878906 216 138.113281 216.453125 141.25 C 216.695312 142.761719 217.148438 144.269531 217.964844 145.539062 C 221.792969 152.148438 225.148438 158.855469 227.113281 166.160156 C 227.230469 166.734375 227.351562 167.308594 226.992188 168.242188 C 223.972656 163.140625 221.078125 158.039062 218.082031 152.84375 C 217.84375 153.105469 217.605469 153.226562 217.363281 153.320312 Z M 217.363281 153.320312 " fill-opacity="1" fill-rule="nonzero"/><path fill="#ffffff" d="M 293.8125 116.964844 C 294.386719 117.539062 294.746094 117.78125 294.867188 118.019531 C 296.253906 121.949219 297.644531 126.019531 299.152344 130.304688 C 298.21875 130.546875 297.40625 130.664062 296.253906 130.761719 C 296.710938 135.046875 297.191406 139.214844 297.523438 143.382812 C 298.21875 151.71875 298.914062 159.933594 297.765625 168.289062 C 296.949219 173.964844 294.625 178.828125 289.765625 182.0625 C 286.746094 184.144531 283.394531 185.773438 280.160156 187.5 C 279.347656 187.953125 278.195312 187.859375 277.261719 187.953125 C 277.144531 187.714844 277.144531 187.378906 277.023438 187.140625 C 277.957031 186.5625 278.773438 185.988281 279.683594 185.511719 C 283.609375 183.308594 287.203125 180.648438 290.101562 177.054688 C 292.542969 174.039062 293.933594 170.6875 293.8125 166.757812 C 293.691406 161.65625 293.453125 156.460938 293 151.359375 C 292.183594 143.261719 291.152344 135.261719 290.101562 127.265625 C 289.40625 123.214844 290.792969 119.984375 293.8125 116.964844 Z M 293.8125 116.964844 " fill-opacity="1" fill-rule="nonzero"/><path fill="#ffffff" d="M 232.429688 117.539062 C 233.9375 121.371094 235.445312 125.0625 237.050781 129.347656 C 235.542969 129.109375 234.726562 128.988281 233.578125 128.773438 C 233.578125 129.347656 233.457031 129.828125 233.578125 130.28125 C 235.207031 139.550781 236.355469 148.9375 235.902344 158.304688 C 235.542969 164.21875 234.511719 169.992188 231.972656 175.453125 C 230.007812 179.738281 226.65625 182.515625 222.011719 183.785156 C 219.472656 184.480469 216.910156 185.175781 214.371094 185.628906 C 213.316406 185.871094 212.285156 185.75 211.136719 185.871094 C 211.136719 183.546875 212.886719 183.785156 213.914062 183.425781 C 216.8125 182.375 219.710938 181.582031 222.488281 180.289062 C 225.625 178.78125 227.804688 176.242188 229.101562 172.890625 C 231.542969 166.183594 232.453125 159.214844 231.542969 152.269531 C 230.394531 143.238281 228.882812 134.304688 227.496094 125.394531 C 226.992188 121.132812 227.6875 119.503906 232.429688 117.539062 Z M 232.429688 117.539062 " fill-opacity="1" fill-rule="nonzero"/><path fill="#ffffff" d="M 242.847656 120.199219 C 245.050781 124.246094 247.253906 128.199219 249.457031 132.246094 C 249.21875 132.484375 249.097656 132.699219 248.882812 132.941406 C 247.828125 132.699219 246.679688 132.484375 245.171875 132.125 C 246.679688 147.644531 247.253906 162.925781 244.476562 178.230469 C 244.117188 178.230469 243.78125 178.230469 243.421875 178.347656 C 243.183594 176.722656 242.726562 175.117188 242.847656 173.488281 C 243.207031 158.421875 241.339844 143.597656 239.710938 128.675781 C 239.589844 127.289062 239.351562 125.898438 239.351562 124.390625 C 239.253906 121.828125 239.613281 121.492188 242.847656 120.199219 Z M 242.847656 120.199219 " fill-opacity="1" fill-rule="nonzero"/><path fill="#ffffff" d="M 76.539062 163.40625 C 76.992188 162.828125 77.351562 162.015625 77.925781 161.5625 C 81.757812 158.542969 85.566406 155.429688 89.613281 152.652344 C 91.9375 150.902344 92.511719 151.023438 95.53125 152.078125 C 93.328125 155.550781 89.519531 156.242188 86.621094 158.445312 C 83.722656 160.652344 80.488281 162.375 77.351562 164.363281 C 77.015625 163.980469 76.777344 163.765625 76.539062 163.40625 Z M 76.539062 163.40625 " fill-opacity="1" fill-rule="nonzero"/><path fill="#ffffff" d="M 254.4375 152.988281 C 257.097656 151.238281 257.457031 151.359375 258.964844 153.226562 C 259.78125 154.28125 260.59375 155.429688 261.742188 156.9375 C 262.558594 154.398438 263.132812 152.410156 263.828125 150.328125 C 264.882812 150.207031 265.792969 150.089844 267.058594 149.96875 C 265.671875 153.898438 264.523438 157.371094 263.132812 160.960938 C 262.4375 160.84375 261.625 160.960938 261.289062 160.601562 C 258.941406 158.183594 256.761719 155.644531 254.4375 152.988281 Z M 254.4375 152.988281 " fill-opacity="1" fill-rule="nonzero"/><path fill="#ffffff" d="M 142.089844 125.875 C 138.617188 121.253906 139.3125 117.875 143.597656 117.179688 C 146.949219 119.382812 144.867188 123.191406 146.375 125.636719 C 143.933594 127.597656 141.632812 129.46875 139.429688 131.191406 C 139.191406 131.074219 139.070312 130.832031 138.855469 130.738281 C 139.789062 129.132812 140.941406 127.503906 142.089844 125.875 Z M 143.144531 120.199219 C 142.785156 120.199219 142.449219 120.320312 142.089844 120.320312 C 142.328125 121.011719 142.449219 121.707031 142.664062 122.28125 C 142.902344 122.28125 143.121094 122.164062 143.359375 122.164062 C 143.261719 121.589844 143.261719 120.894531 143.144531 120.199219 Z M 143.144531 120.199219 " fill-opacity="1" fill-rule="nonzero"/><path fill="#ffffff" d="M 80.371094 173.824219 C 80.609375 177.054688 76.898438 180.074219 79.914062 183.546875 C 81.066406 183.546875 82.238281 183.425781 83.960938 183.308594 C 83.601562 184.242188 83.507812 185.269531 83.027344 185.628906 C 81.066406 187.019531 77.472656 185.871094 76.539062 183.785156 C 75.269531 180.769531 77.136719 175.785156 80.371094 173.824219 Z M 80.371094 173.824219 " fill-opacity="1" fill-rule="nonzero"/><path fill="#ffffff" d="M 264.976562 138.855469 C 264.042969 143.023438 260.691406 145.105469 257.097656 146.855469 C 255.46875 147.667969 253.625 148.9375 251.78125 146.617188 C 253.410156 144.078125 256.523438 144.773438 258.484375 143.261719 C 260.449219 141.632812 262.414062 140.03125 264.496094 138.402344 C 264.523438 138.496094 264.738281 138.617188 264.976562 138.855469 Z M 264.976562 138.855469 " fill-opacity="1" fill-rule="nonzero"/><path fill="#ffffff" d="M 204.167969 185.054688 C 202.085938 183.785156 203.113281 182.039062 203.019531 180.195312 C 201.628906 180.648438 200.359375 181.128906 198.96875 181.582031 C 199.785156 178.230469 201.507812 177.296875 205.460938 177.871094 C 205.460938 179.5 205.460938 181.105469 205.460938 182.972656 C 206.851562 182.734375 208.121094 182.613281 209.988281 182.398438 C 208.121094 184.839844 206.25 185.414062 204.167969 185.054688 Z M 204.167969 185.054688 " fill-opacity="1" fill-rule="nonzero"/><path fill="#ffffff" d="M 183.546875 153.679688 C 181.796875 154.613281 180.3125 155.429688 178.566406 156.21875 C 175.90625 155.765625 175.546875 155.285156 175.425781 151.238281 C 176.363281 152.507812 177.054688 153.441406 178.085938 154.949219 C 178.445312 153.320312 178.660156 152.292969 179.019531 150.902344 C 179.953125 151.476562 180.769531 151.957031 182.15625 152.652344 C 181.796875 150.902344 181.582031 149.753906 181.34375 148.484375 C 183.667969 149.515625 184.027344 150.425781 183.546875 153.679688 Z M 183.546875 153.679688 " fill-opacity="1" fill-rule="nonzero"/><path fill="#ffffff" d="M 85.472656 118.691406 C 85.351562 120.535156 83.027344 121.921875 85.015625 123.910156 C 86.167969 123.214844 87.460938 122.523438 88.847656 121.828125 C 88.847656 124.269531 87.339844 125.996094 85.015625 126.234375 C 83.269531 126.472656 82 125.539062 81.664062 123.910156 C 81.066406 121.589844 82.453125 119.625 85.472656 118.691406 Z M 85.472656 118.691406 " fill-opacity="1" fill-rule="nonzero"/><path fill="#ffffff" d="M 259.0625 184.9375 C 258.128906 184.121094 257.433594 183.667969 256.28125 182.734375 C 258.367188 182.375 259.753906 182.15625 261.144531 181.917969 C 261.71875 185.269531 259.300781 188.625 254.773438 191.304688 C 254.65625 189.679688 254.65625 189.679688 256.28125 188.074219 C 257.21875 187.019531 258.03125 186.109375 259.0625 184.9375 Z M 259.0625 184.9375 " fill-opacity="1" fill-rule="nonzero"/><path fill="#ffffff" d="M 226.179688 137.707031 C 227.230469 140.363281 227.230469 140.363281 225.722656 142.449219 C 223.878906 142.449219 222.128906 142.449219 220.40625 142.449219 C 219.351562 140.699219 219.351562 139.09375 220.765625 137.011719 C 220.886719 138.640625 221.003906 139.671875 221.125 141.417969 C 222.179688 140.148438 222.753906 139.453125 223.449219 138.519531 C 224.023438 139.335938 224.5 140.03125 225.292969 140.964844 C 225.484375 139.550781 225.820312 138.617188 226.179688 137.707031 Z M 226.179688 137.707031 " fill-opacity="1" fill-rule="nonzero"/><path fill="#ffffff" d="M 141.632812 144.53125 C 142.785156 144.53125 143.71875 144.53125 144.652344 144.53125 C 143.503906 146.976562 142.808594 147.070312 139.671875 145.800781 C 137.921875 142.328125 139.789062 139.789062 142.113281 136.652344 C 142.566406 139.671875 140.125 141.875 141.632812 144.53125 Z M 141.632812 144.53125 " fill-opacity="1" fill-rule="nonzero"/><path fill="#ffffff" d="M 138.496094 170.828125 C 137.5625 169.441406 136.867188 168.507812 136.171875 167.597656 C 136.292969 167.355469 136.414062 167.140625 136.414062 166.902344 C 137.347656 167.140625 138.617188 167.019531 138.953125 167.597656 C 139.644531 168.53125 140.222656 169.917969 140.222656 171.070312 C 140.101562 173.390625 137.441406 175.929688 134.425781 176.746094 C 135.957031 174.519531 137.226562 172.671875 138.496094 170.828125 Z M 138.496094 170.828125 " fill-opacity="1" fill-rule="nonzero"/><path fill="#ffffff" d="M 223.28125 130.738281 C 222.703125 126.808594 222.011719 122.859375 221.316406 118.234375 C 224.429688 120.796875 225.125 126.234375 223.28125 130.738281 Z M 223.28125 130.738281 " fill-opacity="1" fill-rule="nonzero"/></svg>